G04 #@! TF.GenerationSoftware,KiCad,Pcbnew,5.1.6*
G04 #@! TF.CreationDate,2020-07-21T22:46:31+02:00*
G04 #@! TF.ProjectId,esp32_stepper_driver,65737033-325f-4737-9465-707065725f64,rev?*
G04 #@! TF.SameCoordinates,Original*
G04 #@! TF.FileFunction,Legend,Bot*
G04 #@! TF.FilePolarity,Positive*
%FSLAX46Y46*%
G04 Gerber Fmt 4.6, Leading zero omitted, Abs format (unit mm)*
G04 Created by KiCad (PCBNEW 5.1.6) date 2020-07-21 22:46:31*
%MOMM*%
%LPD*%
G01*
G04 APERTURE LIST*
%ADD10C,0.120000*%
%ADD11C,0.150000*%
G04 APERTURE END LIST*
D10*
X159004000Y-107368000D02*
X155144000Y-107368000D01*
X155144000Y-107368000D02*
X155144000Y-107113000D01*
X159004000Y-107368000D02*
X162864000Y-107368000D01*
X162864000Y-107368000D02*
X162864000Y-107113000D01*
X159004000Y-96848000D02*
X155144000Y-96848000D01*
X155144000Y-96848000D02*
X155144000Y-97103000D01*
X159004000Y-96848000D02*
X162864000Y-96848000D01*
X162864000Y-96848000D02*
X162864000Y-97103000D01*
X162864000Y-97103000D02*
X164679000Y-97103000D01*
X146812000Y-112288000D02*
X148762000Y-112288000D01*
X146812000Y-112288000D02*
X144862000Y-112288000D01*
X146812000Y-122408000D02*
X148762000Y-122408000D01*
X146812000Y-122408000D02*
X143362000Y-122408000D01*
X180596000Y-76108779D02*
X180596000Y-75783221D01*
X179576000Y-76108779D02*
X179576000Y-75783221D01*
X183644000Y-76108779D02*
X183644000Y-75783221D01*
X182624000Y-76108779D02*
X182624000Y-75783221D01*
X152402000Y-115478779D02*
X152402000Y-115153221D01*
X151382000Y-115478779D02*
X151382000Y-115153221D01*
X153160000Y-115153221D02*
X153160000Y-115478779D01*
X154180000Y-115153221D02*
X154180000Y-115478779D01*
X157224000Y-115895000D02*
X157224000Y-116825000D01*
X157224000Y-119055000D02*
X157224000Y-118125000D01*
X157224000Y-119055000D02*
X155064000Y-119055000D01*
X157224000Y-115895000D02*
X155764000Y-115895000D01*
X157224000Y-111765000D02*
X157224000Y-112695000D01*
X157224000Y-114925000D02*
X157224000Y-113995000D01*
X157224000Y-114925000D02*
X155064000Y-114925000D01*
X157224000Y-111765000D02*
X155764000Y-111765000D01*
X183978733Y-81536000D02*
X184321267Y-81536000D01*
X183978733Y-80516000D02*
X184321267Y-80516000D01*
X164432064Y-93705000D02*
X163227936Y-93705000D01*
X164432064Y-95525000D02*
X163227936Y-95525000D01*
X183978733Y-97284000D02*
X184321267Y-97284000D01*
X183978733Y-96264000D02*
X184321267Y-96264000D01*
X188131267Y-84580000D02*
X187788733Y-84580000D01*
X188131267Y-85600000D02*
X187788733Y-85600000D01*
X173183733Y-76075000D02*
X173526267Y-76075000D01*
X173183733Y-75055000D02*
X173526267Y-75055000D01*
X164432064Y-109580000D02*
X163227936Y-109580000D01*
X164432064Y-111400000D02*
X163227936Y-111400000D01*
X188131267Y-82675000D02*
X187788733Y-82675000D01*
X188131267Y-83695000D02*
X187788733Y-83695000D01*
X184486733Y-113286000D02*
X184829267Y-113286000D01*
X184486733Y-112266000D02*
X184829267Y-112266000D01*
X148842000Y-124288733D02*
X148842000Y-124631267D01*
X149862000Y-124288733D02*
X149862000Y-124631267D01*
X164432064Y-125455000D02*
X163227936Y-125455000D01*
X164432064Y-127275000D02*
X163227936Y-127275000D01*
X183978733Y-129415000D02*
X184321267Y-129415000D01*
X183978733Y-128395000D02*
X184321267Y-128395000D01*
X164432064Y-79650000D02*
X163227936Y-79650000D01*
X164432064Y-77830000D02*
X163227936Y-77830000D01*
D11*
X159765904Y-95460380D02*
X159765904Y-96269904D01*
X159718285Y-96365142D01*
X159670666Y-96412761D01*
X159575428Y-96460380D01*
X159384952Y-96460380D01*
X159289714Y-96412761D01*
X159242095Y-96365142D01*
X159194476Y-96269904D01*
X159194476Y-95460380D01*
X158289714Y-95793714D02*
X158289714Y-96460380D01*
X158527809Y-95412761D02*
X158765904Y-96127047D01*
X158146857Y-96127047D01*
X147573904Y-122700380D02*
X147573904Y-123509904D01*
X147526285Y-123605142D01*
X147478666Y-123652761D01*
X147383428Y-123700380D01*
X147192952Y-123700380D01*
X147097714Y-123652761D01*
X147050095Y-123605142D01*
X147002476Y-123509904D01*
X147002476Y-122700380D01*
X146002476Y-123700380D02*
X146573904Y-123700380D01*
X146288190Y-123700380D02*
X146288190Y-122700380D01*
X146383428Y-122843238D01*
X146478666Y-122938476D01*
X146573904Y-122986095D01*
X181063619Y-76588857D02*
X181539809Y-76922190D01*
X181063619Y-77160285D02*
X182063619Y-77160285D01*
X182063619Y-76779333D01*
X182016000Y-76684095D01*
X181968380Y-76636476D01*
X181873142Y-76588857D01*
X181730285Y-76588857D01*
X181635047Y-76636476D01*
X181587428Y-76684095D01*
X181539809Y-76779333D01*
X181539809Y-77160285D01*
X181063619Y-75636476D02*
X181063619Y-76207904D01*
X181063619Y-75922190D02*
X182063619Y-75922190D01*
X181920761Y-76017428D01*
X181825523Y-76112666D01*
X181777904Y-76207904D01*
X181730285Y-74779333D02*
X181063619Y-74779333D01*
X182111238Y-75017428D02*
X181396952Y-75255523D01*
X181396952Y-74636476D01*
X185016380Y-75303142D02*
X184540190Y-74969809D01*
X185016380Y-74731714D02*
X184016380Y-74731714D01*
X184016380Y-75112666D01*
X184064000Y-75207904D01*
X184111619Y-75255523D01*
X184206857Y-75303142D01*
X184349714Y-75303142D01*
X184444952Y-75255523D01*
X184492571Y-75207904D01*
X184540190Y-75112666D01*
X184540190Y-74731714D01*
X185016380Y-76255523D02*
X185016380Y-75684095D01*
X185016380Y-75969809D02*
X184016380Y-75969809D01*
X184159238Y-75874571D01*
X184254476Y-75779333D01*
X184302095Y-75684095D01*
X184016380Y-76588857D02*
X184016380Y-77207904D01*
X184397333Y-76874571D01*
X184397333Y-77017428D01*
X184444952Y-77112666D01*
X184492571Y-77160285D01*
X184587809Y-77207904D01*
X184825904Y-77207904D01*
X184921142Y-77160285D01*
X184968761Y-77112666D01*
X185016380Y-77017428D01*
X185016380Y-76731714D01*
X184968761Y-76636476D01*
X184921142Y-76588857D01*
X151804666Y-118308380D02*
X152138000Y-117832190D01*
X152376095Y-118308380D02*
X152376095Y-117308380D01*
X151995142Y-117308380D01*
X151899904Y-117356000D01*
X151852285Y-117403619D01*
X151804666Y-117498857D01*
X151804666Y-117641714D01*
X151852285Y-117736952D01*
X151899904Y-117784571D01*
X151995142Y-117832190D01*
X152376095Y-117832190D01*
X150899904Y-117308380D02*
X151376095Y-117308380D01*
X151423714Y-117784571D01*
X151376095Y-117736952D01*
X151280857Y-117689333D01*
X151042761Y-117689333D01*
X150947523Y-117736952D01*
X150899904Y-117784571D01*
X150852285Y-117879809D01*
X150852285Y-118117904D01*
X150899904Y-118213142D01*
X150947523Y-118260761D01*
X151042761Y-118308380D01*
X151280857Y-118308380D01*
X151376095Y-118260761D01*
X151423714Y-118213142D01*
X153836666Y-113228380D02*
X154170000Y-112752190D01*
X154408095Y-113228380D02*
X154408095Y-112228380D01*
X154027142Y-112228380D01*
X153931904Y-112276000D01*
X153884285Y-112323619D01*
X153836666Y-112418857D01*
X153836666Y-112561714D01*
X153884285Y-112656952D01*
X153931904Y-112704571D01*
X154027142Y-112752190D01*
X154408095Y-112752190D01*
X152979523Y-112561714D02*
X152979523Y-113228380D01*
X153217619Y-112180761D02*
X153455714Y-112895047D01*
X152836666Y-112895047D01*
X159353238Y-116879619D02*
X159448476Y-116832000D01*
X159543714Y-116736761D01*
X159686571Y-116593904D01*
X159781809Y-116546285D01*
X159877047Y-116546285D01*
X159829428Y-116784380D02*
X159924666Y-116736761D01*
X160019904Y-116641523D01*
X160067523Y-116451047D01*
X160067523Y-116117714D01*
X160019904Y-115927238D01*
X159924666Y-115832000D01*
X159829428Y-115784380D01*
X159638952Y-115784380D01*
X159543714Y-115832000D01*
X159448476Y-115927238D01*
X159400857Y-116117714D01*
X159400857Y-116451047D01*
X159448476Y-116641523D01*
X159543714Y-116736761D01*
X159638952Y-116784380D01*
X159829428Y-116784380D01*
X159019904Y-115879619D02*
X158972285Y-115832000D01*
X158877047Y-115784380D01*
X158638952Y-115784380D01*
X158543714Y-115832000D01*
X158496095Y-115879619D01*
X158448476Y-115974857D01*
X158448476Y-116070095D01*
X158496095Y-116212952D01*
X159067523Y-116784380D01*
X158448476Y-116784380D01*
X159099238Y-112815619D02*
X159194476Y-112768000D01*
X159289714Y-112672761D01*
X159432571Y-112529904D01*
X159527809Y-112482285D01*
X159623047Y-112482285D01*
X159575428Y-112720380D02*
X159670666Y-112672761D01*
X159765904Y-112577523D01*
X159813523Y-112387047D01*
X159813523Y-112053714D01*
X159765904Y-111863238D01*
X159670666Y-111768000D01*
X159575428Y-111720380D01*
X159384952Y-111720380D01*
X159289714Y-111768000D01*
X159194476Y-111863238D01*
X159146857Y-112053714D01*
X159146857Y-112387047D01*
X159194476Y-112577523D01*
X159289714Y-112672761D01*
X159384952Y-112720380D01*
X159575428Y-112720380D01*
X158194476Y-112720380D02*
X158765904Y-112720380D01*
X158480190Y-112720380D02*
X158480190Y-111720380D01*
X158575428Y-111863238D01*
X158670666Y-111958476D01*
X158765904Y-112006095D01*
X184792857Y-82813142D02*
X184840476Y-82860761D01*
X184983333Y-82908380D01*
X185078571Y-82908380D01*
X185221428Y-82860761D01*
X185316666Y-82765523D01*
X185364285Y-82670285D01*
X185411904Y-82479809D01*
X185411904Y-82336952D01*
X185364285Y-82146476D01*
X185316666Y-82051238D01*
X185221428Y-81956000D01*
X185078571Y-81908380D01*
X184983333Y-81908380D01*
X184840476Y-81956000D01*
X184792857Y-82003619D01*
X184411904Y-82003619D02*
X184364285Y-81956000D01*
X184269047Y-81908380D01*
X184030952Y-81908380D01*
X183935714Y-81956000D01*
X183888095Y-82003619D01*
X183840476Y-82098857D01*
X183840476Y-82194095D01*
X183888095Y-82336952D01*
X184459523Y-82908380D01*
X183840476Y-82908380D01*
X183221428Y-81908380D02*
X183126190Y-81908380D01*
X183030952Y-81956000D01*
X182983333Y-82003619D01*
X182935714Y-82098857D01*
X182888095Y-82289333D01*
X182888095Y-82527428D01*
X182935714Y-82717904D01*
X182983333Y-82813142D01*
X183030952Y-82860761D01*
X183126190Y-82908380D01*
X183221428Y-82908380D01*
X183316666Y-82860761D01*
X183364285Y-82813142D01*
X183411904Y-82717904D01*
X183459523Y-82527428D01*
X183459523Y-82289333D01*
X183411904Y-82098857D01*
X183364285Y-82003619D01*
X183316666Y-81956000D01*
X183221428Y-81908380D01*
X164472857Y-93152142D02*
X164520476Y-93199761D01*
X164663333Y-93247380D01*
X164758571Y-93247380D01*
X164901428Y-93199761D01*
X164996666Y-93104523D01*
X165044285Y-93009285D01*
X165091904Y-92818809D01*
X165091904Y-92675952D01*
X165044285Y-92485476D01*
X164996666Y-92390238D01*
X164901428Y-92295000D01*
X164758571Y-92247380D01*
X164663333Y-92247380D01*
X164520476Y-92295000D01*
X164472857Y-92342619D01*
X163520476Y-93247380D02*
X164091904Y-93247380D01*
X163806190Y-93247380D02*
X163806190Y-92247380D01*
X163901428Y-92390238D01*
X163996666Y-92485476D01*
X164091904Y-92533095D01*
X162949047Y-92675952D02*
X163044285Y-92628333D01*
X163091904Y-92580714D01*
X163139523Y-92485476D01*
X163139523Y-92437857D01*
X163091904Y-92342619D01*
X163044285Y-92295000D01*
X162949047Y-92247380D01*
X162758571Y-92247380D01*
X162663333Y-92295000D01*
X162615714Y-92342619D01*
X162568095Y-92437857D01*
X162568095Y-92485476D01*
X162615714Y-92580714D01*
X162663333Y-92628333D01*
X162758571Y-92675952D01*
X162949047Y-92675952D01*
X163044285Y-92723571D01*
X163091904Y-92771190D01*
X163139523Y-92866428D01*
X163139523Y-93056904D01*
X163091904Y-93152142D01*
X163044285Y-93199761D01*
X162949047Y-93247380D01*
X162758571Y-93247380D01*
X162663333Y-93199761D01*
X162615714Y-93152142D01*
X162568095Y-93056904D01*
X162568095Y-92866428D01*
X162615714Y-92771190D01*
X162663333Y-92723571D01*
X162758571Y-92675952D01*
X184792857Y-98561142D02*
X184840476Y-98608761D01*
X184983333Y-98656380D01*
X185078571Y-98656380D01*
X185221428Y-98608761D01*
X185316666Y-98513523D01*
X185364285Y-98418285D01*
X185411904Y-98227809D01*
X185411904Y-98084952D01*
X185364285Y-97894476D01*
X185316666Y-97799238D01*
X185221428Y-97704000D01*
X185078571Y-97656380D01*
X184983333Y-97656380D01*
X184840476Y-97704000D01*
X184792857Y-97751619D01*
X183840476Y-98656380D02*
X184411904Y-98656380D01*
X184126190Y-98656380D02*
X184126190Y-97656380D01*
X184221428Y-97799238D01*
X184316666Y-97894476D01*
X184411904Y-97942095D01*
X183507142Y-97656380D02*
X182840476Y-97656380D01*
X183269047Y-98656380D01*
X188602857Y-84017142D02*
X188650476Y-84064761D01*
X188793333Y-84112380D01*
X188888571Y-84112380D01*
X189031428Y-84064761D01*
X189126666Y-83969523D01*
X189174285Y-83874285D01*
X189221904Y-83683809D01*
X189221904Y-83540952D01*
X189174285Y-83350476D01*
X189126666Y-83255238D01*
X189031428Y-83160000D01*
X188888571Y-83112380D01*
X188793333Y-83112380D01*
X188650476Y-83160000D01*
X188602857Y-83207619D01*
X187650476Y-84112380D02*
X188221904Y-84112380D01*
X187936190Y-84112380D02*
X187936190Y-83112380D01*
X188031428Y-83255238D01*
X188126666Y-83350476D01*
X188221904Y-83398095D01*
X187317142Y-83112380D02*
X186698095Y-83112380D01*
X187031428Y-83493333D01*
X186888571Y-83493333D01*
X186793333Y-83540952D01*
X186745714Y-83588571D01*
X186698095Y-83683809D01*
X186698095Y-83921904D01*
X186745714Y-84017142D01*
X186793333Y-84064761D01*
X186888571Y-84112380D01*
X187174285Y-84112380D01*
X187269523Y-84064761D01*
X187317142Y-84017142D01*
X170822857Y-76049142D02*
X170870476Y-76096761D01*
X171013333Y-76144380D01*
X171108571Y-76144380D01*
X171251428Y-76096761D01*
X171346666Y-76001523D01*
X171394285Y-75906285D01*
X171441904Y-75715809D01*
X171441904Y-75572952D01*
X171394285Y-75382476D01*
X171346666Y-75287238D01*
X171251428Y-75192000D01*
X171108571Y-75144380D01*
X171013333Y-75144380D01*
X170870476Y-75192000D01*
X170822857Y-75239619D01*
X169870476Y-76144380D02*
X170441904Y-76144380D01*
X170156190Y-76144380D02*
X170156190Y-75144380D01*
X170251428Y-75287238D01*
X170346666Y-75382476D01*
X170441904Y-75430095D01*
X169489523Y-75239619D02*
X169441904Y-75192000D01*
X169346666Y-75144380D01*
X169108571Y-75144380D01*
X169013333Y-75192000D01*
X168965714Y-75239619D01*
X168918095Y-75334857D01*
X168918095Y-75430095D01*
X168965714Y-75572952D01*
X169537142Y-76144380D01*
X168918095Y-76144380D01*
X164472857Y-109027142D02*
X164520476Y-109074761D01*
X164663333Y-109122380D01*
X164758571Y-109122380D01*
X164901428Y-109074761D01*
X164996666Y-108979523D01*
X165044285Y-108884285D01*
X165091904Y-108693809D01*
X165091904Y-108550952D01*
X165044285Y-108360476D01*
X164996666Y-108265238D01*
X164901428Y-108170000D01*
X164758571Y-108122380D01*
X164663333Y-108122380D01*
X164520476Y-108170000D01*
X164472857Y-108217619D01*
X163520476Y-109122380D02*
X164091904Y-109122380D01*
X163806190Y-109122380D02*
X163806190Y-108122380D01*
X163901428Y-108265238D01*
X163996666Y-108360476D01*
X164091904Y-108408095D01*
X162568095Y-109122380D02*
X163139523Y-109122380D01*
X162853809Y-109122380D02*
X162853809Y-108122380D01*
X162949047Y-108265238D01*
X163044285Y-108360476D01*
X163139523Y-108408095D01*
X188602857Y-82112142D02*
X188650476Y-82159761D01*
X188793333Y-82207380D01*
X188888571Y-82207380D01*
X189031428Y-82159761D01*
X189126666Y-82064523D01*
X189174285Y-81969285D01*
X189221904Y-81778809D01*
X189221904Y-81635952D01*
X189174285Y-81445476D01*
X189126666Y-81350238D01*
X189031428Y-81255000D01*
X188888571Y-81207380D01*
X188793333Y-81207380D01*
X188650476Y-81255000D01*
X188602857Y-81302619D01*
X187650476Y-82207380D02*
X188221904Y-82207380D01*
X187936190Y-82207380D02*
X187936190Y-81207380D01*
X188031428Y-81350238D01*
X188126666Y-81445476D01*
X188221904Y-81493095D01*
X187031428Y-81207380D02*
X186936190Y-81207380D01*
X186840952Y-81255000D01*
X186793333Y-81302619D01*
X186745714Y-81397857D01*
X186698095Y-81588333D01*
X186698095Y-81826428D01*
X186745714Y-82016904D01*
X186793333Y-82112142D01*
X186840952Y-82159761D01*
X186936190Y-82207380D01*
X187031428Y-82207380D01*
X187126666Y-82159761D01*
X187174285Y-82112142D01*
X187221904Y-82016904D01*
X187269523Y-81826428D01*
X187269523Y-81588333D01*
X187221904Y-81397857D01*
X187174285Y-81302619D01*
X187126666Y-81255000D01*
X187031428Y-81207380D01*
X184824666Y-114563142D02*
X184872285Y-114610761D01*
X185015142Y-114658380D01*
X185110380Y-114658380D01*
X185253238Y-114610761D01*
X185348476Y-114515523D01*
X185396095Y-114420285D01*
X185443714Y-114229809D01*
X185443714Y-114086952D01*
X185396095Y-113896476D01*
X185348476Y-113801238D01*
X185253238Y-113706000D01*
X185110380Y-113658380D01*
X185015142Y-113658380D01*
X184872285Y-113706000D01*
X184824666Y-113753619D01*
X184348476Y-114658380D02*
X184158000Y-114658380D01*
X184062761Y-114610761D01*
X184015142Y-114563142D01*
X183919904Y-114420285D01*
X183872285Y-114229809D01*
X183872285Y-113848857D01*
X183919904Y-113753619D01*
X183967523Y-113706000D01*
X184062761Y-113658380D01*
X184253238Y-113658380D01*
X184348476Y-113706000D01*
X184396095Y-113753619D01*
X184443714Y-113848857D01*
X184443714Y-114086952D01*
X184396095Y-114182190D01*
X184348476Y-114229809D01*
X184253238Y-114277428D01*
X184062761Y-114277428D01*
X183967523Y-114229809D01*
X183919904Y-114182190D01*
X183872285Y-114086952D01*
X151233142Y-124039333D02*
X151280761Y-123991714D01*
X151328380Y-123848857D01*
X151328380Y-123753619D01*
X151280761Y-123610761D01*
X151185523Y-123515523D01*
X151090285Y-123467904D01*
X150899809Y-123420285D01*
X150756952Y-123420285D01*
X150566476Y-123467904D01*
X150471238Y-123515523D01*
X150376000Y-123610761D01*
X150328380Y-123753619D01*
X150328380Y-123848857D01*
X150376000Y-123991714D01*
X150423619Y-124039333D01*
X150756952Y-124610761D02*
X150709333Y-124515523D01*
X150661714Y-124467904D01*
X150566476Y-124420285D01*
X150518857Y-124420285D01*
X150423619Y-124467904D01*
X150376000Y-124515523D01*
X150328380Y-124610761D01*
X150328380Y-124801238D01*
X150376000Y-124896476D01*
X150423619Y-124944095D01*
X150518857Y-124991714D01*
X150566476Y-124991714D01*
X150661714Y-124944095D01*
X150709333Y-124896476D01*
X150756952Y-124801238D01*
X150756952Y-124610761D01*
X150804571Y-124515523D01*
X150852190Y-124467904D01*
X150947428Y-124420285D01*
X151137904Y-124420285D01*
X151233142Y-124467904D01*
X151280761Y-124515523D01*
X151328380Y-124610761D01*
X151328380Y-124801238D01*
X151280761Y-124896476D01*
X151233142Y-124944095D01*
X151137904Y-124991714D01*
X150947428Y-124991714D01*
X150852190Y-124944095D01*
X150804571Y-124896476D01*
X150756952Y-124801238D01*
X163996666Y-124902142D02*
X164044285Y-124949761D01*
X164187142Y-124997380D01*
X164282380Y-124997380D01*
X164425238Y-124949761D01*
X164520476Y-124854523D01*
X164568095Y-124759285D01*
X164615714Y-124568809D01*
X164615714Y-124425952D01*
X164568095Y-124235476D01*
X164520476Y-124140238D01*
X164425238Y-124045000D01*
X164282380Y-123997380D01*
X164187142Y-123997380D01*
X164044285Y-124045000D01*
X163996666Y-124092619D01*
X163139523Y-124330714D02*
X163139523Y-124997380D01*
X163377619Y-123949761D02*
X163615714Y-124664047D01*
X162996666Y-124664047D01*
X187618666Y-129389142D02*
X187666285Y-129436761D01*
X187809142Y-129484380D01*
X187904380Y-129484380D01*
X188047238Y-129436761D01*
X188142476Y-129341523D01*
X188190095Y-129246285D01*
X188237714Y-129055809D01*
X188237714Y-128912952D01*
X188190095Y-128722476D01*
X188142476Y-128627238D01*
X188047238Y-128532000D01*
X187904380Y-128484380D01*
X187809142Y-128484380D01*
X187666285Y-128532000D01*
X187618666Y-128579619D01*
X187285333Y-128484380D02*
X186666285Y-128484380D01*
X186999619Y-128865333D01*
X186856761Y-128865333D01*
X186761523Y-128912952D01*
X186713904Y-128960571D01*
X186666285Y-129055809D01*
X186666285Y-129293904D01*
X186713904Y-129389142D01*
X186761523Y-129436761D01*
X186856761Y-129484380D01*
X187142476Y-129484380D01*
X187237714Y-129436761D01*
X187285333Y-129389142D01*
X164472857Y-81129142D02*
X164520476Y-81176761D01*
X164663333Y-81224380D01*
X164758571Y-81224380D01*
X164901428Y-81176761D01*
X164996666Y-81081523D01*
X165044285Y-80986285D01*
X165091904Y-80795809D01*
X165091904Y-80652952D01*
X165044285Y-80462476D01*
X164996666Y-80367238D01*
X164901428Y-80272000D01*
X164758571Y-80224380D01*
X164663333Y-80224380D01*
X164520476Y-80272000D01*
X164472857Y-80319619D01*
X164091904Y-80319619D02*
X164044285Y-80272000D01*
X163949047Y-80224380D01*
X163710952Y-80224380D01*
X163615714Y-80272000D01*
X163568095Y-80319619D01*
X163520476Y-80414857D01*
X163520476Y-80510095D01*
X163568095Y-80652952D01*
X164139523Y-81224380D01*
X163520476Y-81224380D01*
X162568095Y-81224380D02*
X163139523Y-81224380D01*
X162853809Y-81224380D02*
X162853809Y-80224380D01*
X162949047Y-80367238D01*
X163044285Y-80462476D01*
X163139523Y-80510095D01*
M02*
