M48
; DRILL file {KiCad 5.1.6} date Tue Jul 21 22:46:34 2020
; FORMAT={-:-/ absolute / inch / decimal}
; #@! TF.CreationDate,2020-07-21T22:46:34+02:00
; #@! TF.GenerationSoftware,Kicad,Pcbnew,5.1.6
; #@! TF.FileFunction,Plated,1,2,PTH
FMAT,2
INCH
T1C0.0157
T2C0.0300
T3C0.0374
T4C0.0394
T5C0.1260
%
G90
G05
T1
X5.42Y-4.405
X5.5Y-4.57
X5.5698Y-4.6448
X5.5733Y-4.5741
X5.5758Y-5.3297
X5.6198Y-4.5402
X5.62Y-4.61
X5.63Y-4.41
X5.64Y-4.08
X5.64Y-4.115
X5.64Y-4.15
X5.64Y-4.185
X5.64Y-4.22
X5.64Y-5.34
X5.68Y-5.34
X5.72Y-5.33
X5.74Y-3.69
X5.7437Y-4.6155
X5.75Y-3.89
X5.75Y-4.25
X5.75Y-4.7
X5.76Y-5.33
X5.7874Y-3.9606
X5.7874Y-3.9961
X5.7874Y-4.0315
X5.7874Y-4.0669
X5.79Y-4.68
X5.79Y-5.42
X5.79Y-5.46
X5.79Y-5.5
X5.79Y-5.54
X5.8Y-3.38
X5.8Y-3.49
X5.8Y-4.825
X5.8246Y-5.3297
X5.83Y-3.44
X5.85Y-4.14
X5.85Y-4.19
X5.88Y-3.44
X5.89Y-3.69
X5.93Y-3.4
X5.96Y-4.67
X6.0076Y-3.4473
X6.02Y-3.41
X6.05Y-4.62
X6.06Y-3.28
X6.07Y-3.69
X6.09Y-3.55
X6.095Y-5.17
X6.11Y-3.27
X6.135Y-5.225
X6.15Y-3.82
X6.16Y-3.155
X6.16Y-3.19
X6.195Y-3.155
X6.195Y-3.19
X6.21Y-3.28
X6.21Y-3.69
X6.23Y-3.155
X6.23Y-3.19
X6.23Y-4.69
X6.24Y-5.17
X6.27Y-3.835
X6.27Y-3.87
X6.27Y-3.905
X6.27Y-3.94
X6.2795Y-3.9961
X6.28Y-4.045
X6.28Y-4.095
X6.29Y-3.68
X6.33Y-5.225
X6.33Y-5.26
X6.34Y-4.85
X6.365Y-5.225
X6.365Y-5.26
X6.378Y-4.2718
X6.4027Y-3.5427
X6.455Y-3.605
X6.5157Y-5.122
X6.5188Y-5.437
X6.545Y-3.555
X6.545Y-4.43
X6.545Y-4.47
X6.545Y-4.5094
X6.545Y-4.5487
X6.545Y-4.665
X6.57Y-3.805
X6.57Y-3.84
X6.5738Y-5.2638
X6.6024Y-5.2087
X6.605Y-3.805
X6.605Y-3.84
X6.6374Y-5.4013
X6.6417Y-5.3622
X6.65Y-4.715
X6.7616Y-4.4066
X6.9094Y-5.3622
X6.9138Y-5.4013
X6.9312Y-3.6713
X7.0072Y-3.0418
X7.04Y-3.02
X7.16Y-4.06
X7.16Y-4.69
X7.17Y-4.15
X7.27Y-3.28
X7.27Y-3.32
X7.31Y-3.28
X7.31Y-3.32
T2
X6.6Y-4.975
X6.6Y-5.475
X6.7Y-4.975
X6.7Y-5.475
X6.8Y-4.975
X6.8Y-5.475
X6.9Y-4.975
X6.9Y-5.475
X7.0Y-4.975
X7.0Y-5.475
X7.1Y-4.975
X7.1Y-5.475
X7.2Y-4.975
X7.2Y-5.475
X7.3Y-4.975
X7.3Y-5.475
X6.6Y-4.35
X6.6Y-4.85
X6.7Y-4.35
X6.7Y-4.85
X6.8Y-4.35
X6.8Y-4.85
X6.9Y-4.35
X6.9Y-4.85
X7.0Y-4.35
X7.0Y-4.85
X7.1Y-4.35
X7.1Y-4.85
X7.2Y-4.35
X7.2Y-4.85
X7.3Y-4.35
X7.3Y-4.85
X6.6Y-3.1
X6.6Y-3.6
X6.7Y-3.1
X6.7Y-3.6
X6.8Y-3.1
X6.8Y-3.6
X6.9Y-3.1
X6.9Y-3.6
X7.0Y-3.1
X7.0Y-3.6
X7.1Y-3.1
X7.1Y-3.6
X7.2Y-3.1
X7.2Y-3.6
X7.3Y-3.1
X7.3Y-3.6
X6.6Y-3.725
X6.6Y-4.225
X6.7Y-3.725
X6.7Y-4.225
X6.8Y-3.725
X6.8Y-4.225
X6.9Y-3.725
X6.9Y-4.225
X7.0Y-3.725
X7.0Y-4.225
X7.1Y-3.725
X7.1Y-4.225
X7.2Y-3.725
X7.2Y-4.225
X7.3Y-3.725
X7.3Y-4.225
T3
X6.49Y-2.875
X6.5884Y-2.875
X6.6869Y-2.875
X6.7853Y-2.875
X7.025Y-2.875
X7.1234Y-2.875
X7.2219Y-2.875
X7.52Y-3.52
X7.52Y-3.6184
X7.52Y-3.7169
X7.52Y-3.8153
X7.52Y-4.08
X7.52Y-4.1784
X7.52Y-4.2769
X7.52Y-4.3753
X7.52Y-4.64
X7.52Y-4.7384
X7.52Y-4.8369
X7.52Y-4.9353
X7.52Y-5.2
X7.52Y-5.2984
X7.52Y-5.3969
X7.52Y-5.4953
T4
X6.725Y-5.175
X6.725Y-5.275
X6.825Y-5.175
X6.825Y-5.275
X6.925Y-5.175
X6.925Y-5.275
X7.52Y-3.17
X7.52Y-3.2684
X6.725Y-4.55
X6.725Y-4.65
X6.825Y-4.55
X6.825Y-4.65
X6.925Y-4.55
X6.925Y-4.65
X6.725Y-3.925
X6.725Y-4.025
X6.825Y-3.925
X6.825Y-4.025
X6.925Y-3.925
X6.925Y-4.025
X6.725Y-3.3
X6.725Y-3.4
X6.825Y-3.3
X6.825Y-3.4
X6.925Y-3.3
X6.925Y-3.4
T5
X7.475Y-2.925
X7.475Y-5.75
X5.525Y-5.75
X5.525Y-2.925
T4
G00X5.9706Y-5.36
M15
G01X6.0494Y-5.36
M16
G05
G00X5.9706Y-5.5962
M15
G01X6.0494Y-5.5962
M16
G05
G00X6.195Y-5.5175
M15
G01X6.195Y-5.4387
M16
G05
T0
M30
