G04 #@! TF.GenerationSoftware,KiCad,Pcbnew,5.1.6*
G04 #@! TF.CreationDate,2020-07-21T22:46:31+02:00*
G04 #@! TF.ProjectId,esp32_stepper_driver,65737033-325f-4737-9465-707065725f64,rev?*
G04 #@! TF.SameCoordinates,Original*
G04 #@! TF.FileFunction,Soldermask,Bot*
G04 #@! TF.FilePolarity,Negative*
%FSLAX46Y46*%
G04 Gerber Fmt 4.6, Leading zero omitted, Abs format (unit mm)*
G04 Created by KiCad (PCBNEW 5.1.6) date 2020-07-21 22:46:31*
%MOMM*%
%LPD*%
G01*
G04 APERTURE LIST*
%ADD10O,2.100000X2.100000*%
%ADD11R,2.100000X2.100000*%
%ADD12O,2.350000X2.100000*%
%ADD13R,1.300000X1.200000*%
%ADD14C,6.000000*%
%ADD15O,2.400000X2.100000*%
%ADD16O,2.100000X2.350000*%
%ADD17R,3.900000X3.900000*%
%ADD18C,1.924000*%
G04 APERTURE END LIST*
D10*
X175895000Y-83820000D03*
X175895000Y-86360000D03*
X173355000Y-83820000D03*
X173355000Y-86360000D03*
X170815000Y-83820000D03*
D11*
X170815000Y-86360000D03*
D10*
X175895000Y-99695000D03*
X175895000Y-102235000D03*
X173355000Y-99695000D03*
X173355000Y-102235000D03*
X170815000Y-99695000D03*
D11*
X170815000Y-102235000D03*
D10*
X175895000Y-115570000D03*
X175895000Y-118110000D03*
X173355000Y-115570000D03*
X173355000Y-118110000D03*
X170815000Y-115570000D03*
D11*
X170815000Y-118110000D03*
D10*
X175895000Y-131445000D03*
X175895000Y-133985000D03*
X173355000Y-131445000D03*
X173355000Y-133985000D03*
X170815000Y-131445000D03*
D11*
X170815000Y-133985000D03*
D12*
X191008000Y-96908000D03*
X191008000Y-94408000D03*
X191008000Y-91908000D03*
G36*
G01*
X190141823Y-88358000D02*
X191874177Y-88358000D01*
G75*
G02*
X192183000Y-88666823I0J-308823D01*
G01*
X192183000Y-90149177D01*
G75*
G02*
X191874177Y-90458000I-308823J0D01*
G01*
X190141823Y-90458000D01*
G75*
G02*
X189833000Y-90149177I0J308823D01*
G01*
X189833000Y-88666823D01*
G75*
G02*
X190141823Y-88358000I308823J0D01*
G01*
G37*
X191008000Y-125356000D03*
X191008000Y-122856000D03*
X191008000Y-120356000D03*
G36*
G01*
X190141823Y-116806000D02*
X191874177Y-116806000D01*
G75*
G02*
X192183000Y-117114823I0J-308823D01*
G01*
X192183000Y-118597177D01*
G75*
G02*
X191874177Y-118906000I-308823J0D01*
G01*
X190141823Y-118906000D01*
G75*
G02*
X189833000Y-118597177I0J308823D01*
G01*
X189833000Y-117114823D01*
G75*
G02*
X190141823Y-116806000I308823J0D01*
G01*
G37*
G36*
G01*
X155579000Y-97413000D02*
X155579000Y-97913000D01*
G75*
G02*
X155329000Y-98163000I-250000J0D01*
G01*
X153379000Y-98163000D01*
G75*
G02*
X153129000Y-97913000I0J250000D01*
G01*
X153129000Y-97413000D01*
G75*
G02*
X153379000Y-97163000I250000J0D01*
G01*
X155329000Y-97163000D01*
G75*
G02*
X155579000Y-97413000I0J-250000D01*
G01*
G37*
G36*
G01*
X155579000Y-98683000D02*
X155579000Y-99183000D01*
G75*
G02*
X155329000Y-99433000I-250000J0D01*
G01*
X153379000Y-99433000D01*
G75*
G02*
X153129000Y-99183000I0J250000D01*
G01*
X153129000Y-98683000D01*
G75*
G02*
X153379000Y-98433000I250000J0D01*
G01*
X155329000Y-98433000D01*
G75*
G02*
X155579000Y-98683000I0J-250000D01*
G01*
G37*
G36*
G01*
X155579000Y-99953000D02*
X155579000Y-100453000D01*
G75*
G02*
X155329000Y-100703000I-250000J0D01*
G01*
X153379000Y-100703000D01*
G75*
G02*
X153129000Y-100453000I0J250000D01*
G01*
X153129000Y-99953000D01*
G75*
G02*
X153379000Y-99703000I250000J0D01*
G01*
X155329000Y-99703000D01*
G75*
G02*
X155579000Y-99953000I0J-250000D01*
G01*
G37*
G36*
G01*
X155579000Y-101223000D02*
X155579000Y-101723000D01*
G75*
G02*
X155329000Y-101973000I-250000J0D01*
G01*
X153379000Y-101973000D01*
G75*
G02*
X153129000Y-101723000I0J250000D01*
G01*
X153129000Y-101223000D01*
G75*
G02*
X153379000Y-100973000I250000J0D01*
G01*
X155329000Y-100973000D01*
G75*
G02*
X155579000Y-101223000I0J-250000D01*
G01*
G37*
G36*
G01*
X155579000Y-102493000D02*
X155579000Y-102993000D01*
G75*
G02*
X155329000Y-103243000I-250000J0D01*
G01*
X153379000Y-103243000D01*
G75*
G02*
X153129000Y-102993000I0J250000D01*
G01*
X153129000Y-102493000D01*
G75*
G02*
X153379000Y-102243000I250000J0D01*
G01*
X155329000Y-102243000D01*
G75*
G02*
X155579000Y-102493000I0J-250000D01*
G01*
G37*
G36*
G01*
X155579000Y-103763000D02*
X155579000Y-104263000D01*
G75*
G02*
X155329000Y-104513000I-250000J0D01*
G01*
X153379000Y-104513000D01*
G75*
G02*
X153129000Y-104263000I0J250000D01*
G01*
X153129000Y-103763000D01*
G75*
G02*
X153379000Y-103513000I250000J0D01*
G01*
X155329000Y-103513000D01*
G75*
G02*
X155579000Y-103763000I0J-250000D01*
G01*
G37*
G36*
G01*
X155579000Y-105033000D02*
X155579000Y-105533000D01*
G75*
G02*
X155329000Y-105783000I-250000J0D01*
G01*
X153379000Y-105783000D01*
G75*
G02*
X153129000Y-105533000I0J250000D01*
G01*
X153129000Y-105033000D01*
G75*
G02*
X153379000Y-104783000I250000J0D01*
G01*
X155329000Y-104783000D01*
G75*
G02*
X155579000Y-105033000I0J-250000D01*
G01*
G37*
G36*
G01*
X155579000Y-106303000D02*
X155579000Y-106803000D01*
G75*
G02*
X155329000Y-107053000I-250000J0D01*
G01*
X153379000Y-107053000D01*
G75*
G02*
X153129000Y-106803000I0J250000D01*
G01*
X153129000Y-106303000D01*
G75*
G02*
X153379000Y-106053000I250000J0D01*
G01*
X155329000Y-106053000D01*
G75*
G02*
X155579000Y-106303000I0J-250000D01*
G01*
G37*
G36*
G01*
X164879000Y-106303000D02*
X164879000Y-106803000D01*
G75*
G02*
X164629000Y-107053000I-250000J0D01*
G01*
X162679000Y-107053000D01*
G75*
G02*
X162429000Y-106803000I0J250000D01*
G01*
X162429000Y-106303000D01*
G75*
G02*
X162679000Y-106053000I250000J0D01*
G01*
X164629000Y-106053000D01*
G75*
G02*
X164879000Y-106303000I0J-250000D01*
G01*
G37*
G36*
G01*
X164879000Y-105033000D02*
X164879000Y-105533000D01*
G75*
G02*
X164629000Y-105783000I-250000J0D01*
G01*
X162679000Y-105783000D01*
G75*
G02*
X162429000Y-105533000I0J250000D01*
G01*
X162429000Y-105033000D01*
G75*
G02*
X162679000Y-104783000I250000J0D01*
G01*
X164629000Y-104783000D01*
G75*
G02*
X164879000Y-105033000I0J-250000D01*
G01*
G37*
G36*
G01*
X164879000Y-103763000D02*
X164879000Y-104263000D01*
G75*
G02*
X164629000Y-104513000I-250000J0D01*
G01*
X162679000Y-104513000D01*
G75*
G02*
X162429000Y-104263000I0J250000D01*
G01*
X162429000Y-103763000D01*
G75*
G02*
X162679000Y-103513000I250000J0D01*
G01*
X164629000Y-103513000D01*
G75*
G02*
X164879000Y-103763000I0J-250000D01*
G01*
G37*
G36*
G01*
X164879000Y-102493000D02*
X164879000Y-102993000D01*
G75*
G02*
X164629000Y-103243000I-250000J0D01*
G01*
X162679000Y-103243000D01*
G75*
G02*
X162429000Y-102993000I0J250000D01*
G01*
X162429000Y-102493000D01*
G75*
G02*
X162679000Y-102243000I250000J0D01*
G01*
X164629000Y-102243000D01*
G75*
G02*
X164879000Y-102493000I0J-250000D01*
G01*
G37*
G36*
G01*
X164879000Y-101223000D02*
X164879000Y-101723000D01*
G75*
G02*
X164629000Y-101973000I-250000J0D01*
G01*
X162679000Y-101973000D01*
G75*
G02*
X162429000Y-101723000I0J250000D01*
G01*
X162429000Y-101223000D01*
G75*
G02*
X162679000Y-100973000I250000J0D01*
G01*
X164629000Y-100973000D01*
G75*
G02*
X164879000Y-101223000I0J-250000D01*
G01*
G37*
G36*
G01*
X164879000Y-99953000D02*
X164879000Y-100453000D01*
G75*
G02*
X164629000Y-100703000I-250000J0D01*
G01*
X162679000Y-100703000D01*
G75*
G02*
X162429000Y-100453000I0J250000D01*
G01*
X162429000Y-99953000D01*
G75*
G02*
X162679000Y-99703000I250000J0D01*
G01*
X164629000Y-99703000D01*
G75*
G02*
X164879000Y-99953000I0J-250000D01*
G01*
G37*
G36*
G01*
X164879000Y-98683000D02*
X164879000Y-99183000D01*
G75*
G02*
X164629000Y-99433000I-250000J0D01*
G01*
X162679000Y-99433000D01*
G75*
G02*
X162429000Y-99183000I0J250000D01*
G01*
X162429000Y-98683000D01*
G75*
G02*
X162679000Y-98433000I250000J0D01*
G01*
X164629000Y-98433000D01*
G75*
G02*
X164879000Y-98683000I0J-250000D01*
G01*
G37*
G36*
G01*
X164879000Y-97413000D02*
X164879000Y-97913000D01*
G75*
G02*
X164629000Y-98163000I-250000J0D01*
G01*
X162679000Y-98163000D01*
G75*
G02*
X162429000Y-97913000I0J250000D01*
G01*
X162429000Y-97413000D01*
G75*
G02*
X162679000Y-97163000I250000J0D01*
G01*
X164629000Y-97163000D01*
G75*
G02*
X164879000Y-97413000I0J-250000D01*
G01*
G37*
G36*
G01*
X148112000Y-122043000D02*
X148112000Y-121543000D01*
G75*
G02*
X148362000Y-121293000I250000J0D01*
G01*
X150212000Y-121293000D01*
G75*
G02*
X150462000Y-121543000I0J-250000D01*
G01*
X150462000Y-122043000D01*
G75*
G02*
X150212000Y-122293000I-250000J0D01*
G01*
X148362000Y-122293000D01*
G75*
G02*
X148112000Y-122043000I0J250000D01*
G01*
G37*
G36*
G01*
X148112000Y-120773000D02*
X148112000Y-120273000D01*
G75*
G02*
X148362000Y-120023000I250000J0D01*
G01*
X150212000Y-120023000D01*
G75*
G02*
X150462000Y-120273000I0J-250000D01*
G01*
X150462000Y-120773000D01*
G75*
G02*
X150212000Y-121023000I-250000J0D01*
G01*
X148362000Y-121023000D01*
G75*
G02*
X148112000Y-120773000I0J250000D01*
G01*
G37*
G36*
G01*
X148112000Y-119503000D02*
X148112000Y-119003000D01*
G75*
G02*
X148362000Y-118753000I250000J0D01*
G01*
X150212000Y-118753000D01*
G75*
G02*
X150462000Y-119003000I0J-250000D01*
G01*
X150462000Y-119503000D01*
G75*
G02*
X150212000Y-119753000I-250000J0D01*
G01*
X148362000Y-119753000D01*
G75*
G02*
X148112000Y-119503000I0J250000D01*
G01*
G37*
G36*
G01*
X148112000Y-118233000D02*
X148112000Y-117733000D01*
G75*
G02*
X148362000Y-117483000I250000J0D01*
G01*
X150212000Y-117483000D01*
G75*
G02*
X150462000Y-117733000I0J-250000D01*
G01*
X150462000Y-118233000D01*
G75*
G02*
X150212000Y-118483000I-250000J0D01*
G01*
X148362000Y-118483000D01*
G75*
G02*
X148112000Y-118233000I0J250000D01*
G01*
G37*
G36*
G01*
X148112000Y-116963000D02*
X148112000Y-116463000D01*
G75*
G02*
X148362000Y-116213000I250000J0D01*
G01*
X150212000Y-116213000D01*
G75*
G02*
X150462000Y-116463000I0J-250000D01*
G01*
X150462000Y-116963000D01*
G75*
G02*
X150212000Y-117213000I-250000J0D01*
G01*
X148362000Y-117213000D01*
G75*
G02*
X148112000Y-116963000I0J250000D01*
G01*
G37*
G36*
G01*
X148112000Y-115693000D02*
X148112000Y-115193000D01*
G75*
G02*
X148362000Y-114943000I250000J0D01*
G01*
X150212000Y-114943000D01*
G75*
G02*
X150462000Y-115193000I0J-250000D01*
G01*
X150462000Y-115693000D01*
G75*
G02*
X150212000Y-115943000I-250000J0D01*
G01*
X148362000Y-115943000D01*
G75*
G02*
X148112000Y-115693000I0J250000D01*
G01*
G37*
G36*
G01*
X148112000Y-114423000D02*
X148112000Y-113923000D01*
G75*
G02*
X148362000Y-113673000I250000J0D01*
G01*
X150212000Y-113673000D01*
G75*
G02*
X150462000Y-113923000I0J-250000D01*
G01*
X150462000Y-114423000D01*
G75*
G02*
X150212000Y-114673000I-250000J0D01*
G01*
X148362000Y-114673000D01*
G75*
G02*
X148112000Y-114423000I0J250000D01*
G01*
G37*
G36*
G01*
X148112000Y-113153000D02*
X148112000Y-112653000D01*
G75*
G02*
X148362000Y-112403000I250000J0D01*
G01*
X150212000Y-112403000D01*
G75*
G02*
X150462000Y-112653000I0J-250000D01*
G01*
X150462000Y-113153000D01*
G75*
G02*
X150212000Y-113403000I-250000J0D01*
G01*
X148362000Y-113403000D01*
G75*
G02*
X148112000Y-113153000I0J250000D01*
G01*
G37*
G36*
G01*
X143162000Y-113153000D02*
X143162000Y-112653000D01*
G75*
G02*
X143412000Y-112403000I250000J0D01*
G01*
X145262000Y-112403000D01*
G75*
G02*
X145512000Y-112653000I0J-250000D01*
G01*
X145512000Y-113153000D01*
G75*
G02*
X145262000Y-113403000I-250000J0D01*
G01*
X143412000Y-113403000D01*
G75*
G02*
X143162000Y-113153000I0J250000D01*
G01*
G37*
G36*
G01*
X143162000Y-114423000D02*
X143162000Y-113923000D01*
G75*
G02*
X143412000Y-113673000I250000J0D01*
G01*
X145262000Y-113673000D01*
G75*
G02*
X145512000Y-113923000I0J-250000D01*
G01*
X145512000Y-114423000D01*
G75*
G02*
X145262000Y-114673000I-250000J0D01*
G01*
X143412000Y-114673000D01*
G75*
G02*
X143162000Y-114423000I0J250000D01*
G01*
G37*
G36*
G01*
X143162000Y-115693000D02*
X143162000Y-115193000D01*
G75*
G02*
X143412000Y-114943000I250000J0D01*
G01*
X145262000Y-114943000D01*
G75*
G02*
X145512000Y-115193000I0J-250000D01*
G01*
X145512000Y-115693000D01*
G75*
G02*
X145262000Y-115943000I-250000J0D01*
G01*
X143412000Y-115943000D01*
G75*
G02*
X143162000Y-115693000I0J250000D01*
G01*
G37*
G36*
G01*
X143162000Y-116963000D02*
X143162000Y-116463000D01*
G75*
G02*
X143412000Y-116213000I250000J0D01*
G01*
X145262000Y-116213000D01*
G75*
G02*
X145512000Y-116463000I0J-250000D01*
G01*
X145512000Y-116963000D01*
G75*
G02*
X145262000Y-117213000I-250000J0D01*
G01*
X143412000Y-117213000D01*
G75*
G02*
X143162000Y-116963000I0J250000D01*
G01*
G37*
G36*
G01*
X143162000Y-118233000D02*
X143162000Y-117733000D01*
G75*
G02*
X143412000Y-117483000I250000J0D01*
G01*
X145262000Y-117483000D01*
G75*
G02*
X145512000Y-117733000I0J-250000D01*
G01*
X145512000Y-118233000D01*
G75*
G02*
X145262000Y-118483000I-250000J0D01*
G01*
X143412000Y-118483000D01*
G75*
G02*
X143162000Y-118233000I0J250000D01*
G01*
G37*
G36*
G01*
X143162000Y-119503000D02*
X143162000Y-119003000D01*
G75*
G02*
X143412000Y-118753000I250000J0D01*
G01*
X145262000Y-118753000D01*
G75*
G02*
X145512000Y-119003000I0J-250000D01*
G01*
X145512000Y-119503000D01*
G75*
G02*
X145262000Y-119753000I-250000J0D01*
G01*
X143412000Y-119753000D01*
G75*
G02*
X143162000Y-119503000I0J250000D01*
G01*
G37*
G36*
G01*
X143162000Y-120773000D02*
X143162000Y-120273000D01*
G75*
G02*
X143412000Y-120023000I250000J0D01*
G01*
X145262000Y-120023000D01*
G75*
G02*
X145512000Y-120273000I0J-250000D01*
G01*
X145512000Y-120773000D01*
G75*
G02*
X145262000Y-121023000I-250000J0D01*
G01*
X143412000Y-121023000D01*
G75*
G02*
X143162000Y-120773000I0J250000D01*
G01*
G37*
G36*
G01*
X143162000Y-122043000D02*
X143162000Y-121543000D01*
G75*
G02*
X143412000Y-121293000I250000J0D01*
G01*
X145262000Y-121293000D01*
G75*
G02*
X145512000Y-121543000I0J-250000D01*
G01*
X145512000Y-122043000D01*
G75*
G02*
X145262000Y-122293000I-250000J0D01*
G01*
X143412000Y-122293000D01*
G75*
G02*
X143162000Y-122043000I0J250000D01*
G01*
G37*
G36*
G01*
X180442250Y-75796000D02*
X179729750Y-75796000D01*
G75*
G02*
X179411000Y-75477250I0J318750D01*
G01*
X179411000Y-74839750D01*
G75*
G02*
X179729750Y-74521000I318750J0D01*
G01*
X180442250Y-74521000D01*
G75*
G02*
X180761000Y-74839750I0J-318750D01*
G01*
X180761000Y-75477250D01*
G75*
G02*
X180442250Y-75796000I-318750J0D01*
G01*
G37*
G36*
G01*
X180442250Y-77371000D02*
X179729750Y-77371000D01*
G75*
G02*
X179411000Y-77052250I0J318750D01*
G01*
X179411000Y-76414750D01*
G75*
G02*
X179729750Y-76096000I318750J0D01*
G01*
X180442250Y-76096000D01*
G75*
G02*
X180761000Y-76414750I0J-318750D01*
G01*
X180761000Y-77052250D01*
G75*
G02*
X180442250Y-77371000I-318750J0D01*
G01*
G37*
G36*
G01*
X183490250Y-75796000D02*
X182777750Y-75796000D01*
G75*
G02*
X182459000Y-75477250I0J318750D01*
G01*
X182459000Y-74839750D01*
G75*
G02*
X182777750Y-74521000I318750J0D01*
G01*
X183490250Y-74521000D01*
G75*
G02*
X183809000Y-74839750I0J-318750D01*
G01*
X183809000Y-75477250D01*
G75*
G02*
X183490250Y-75796000I-318750J0D01*
G01*
G37*
G36*
G01*
X183490250Y-77371000D02*
X182777750Y-77371000D01*
G75*
G02*
X182459000Y-77052250I0J318750D01*
G01*
X182459000Y-76414750D01*
G75*
G02*
X182777750Y-76096000I318750J0D01*
G01*
X183490250Y-76096000D01*
G75*
G02*
X183809000Y-76414750I0J-318750D01*
G01*
X183809000Y-77052250D01*
G75*
G02*
X183490250Y-77371000I-318750J0D01*
G01*
G37*
G36*
G01*
X152248250Y-115166000D02*
X151535750Y-115166000D01*
G75*
G02*
X151217000Y-114847250I0J318750D01*
G01*
X151217000Y-114209750D01*
G75*
G02*
X151535750Y-113891000I318750J0D01*
G01*
X152248250Y-113891000D01*
G75*
G02*
X152567000Y-114209750I0J-318750D01*
G01*
X152567000Y-114847250D01*
G75*
G02*
X152248250Y-115166000I-318750J0D01*
G01*
G37*
G36*
G01*
X152248250Y-116741000D02*
X151535750Y-116741000D01*
G75*
G02*
X151217000Y-116422250I0J318750D01*
G01*
X151217000Y-115784750D01*
G75*
G02*
X151535750Y-115466000I318750J0D01*
G01*
X152248250Y-115466000D01*
G75*
G02*
X152567000Y-115784750I0J-318750D01*
G01*
X152567000Y-116422250D01*
G75*
G02*
X152248250Y-116741000I-318750J0D01*
G01*
G37*
G36*
G01*
X153313750Y-115466000D02*
X154026250Y-115466000D01*
G75*
G02*
X154345000Y-115784750I0J-318750D01*
G01*
X154345000Y-116422250D01*
G75*
G02*
X154026250Y-116741000I-318750J0D01*
G01*
X153313750Y-116741000D01*
G75*
G02*
X152995000Y-116422250I0J318750D01*
G01*
X152995000Y-115784750D01*
G75*
G02*
X153313750Y-115466000I318750J0D01*
G01*
G37*
G36*
G01*
X153313750Y-113891000D02*
X154026250Y-113891000D01*
G75*
G02*
X154345000Y-114209750I0J-318750D01*
G01*
X154345000Y-114847250D01*
G75*
G02*
X154026250Y-115166000I-318750J0D01*
G01*
X153313750Y-115166000D01*
G75*
G02*
X152995000Y-114847250I0J318750D01*
G01*
X152995000Y-114209750D01*
G75*
G02*
X153313750Y-113891000I318750J0D01*
G01*
G37*
D13*
X157464000Y-117475000D03*
X155464000Y-116525000D03*
X155464000Y-118425000D03*
X157464000Y-113345000D03*
X155464000Y-112395000D03*
X155464000Y-114295000D03*
D14*
X189865000Y-146050000D03*
X140335000Y-146050000D03*
X189865000Y-74295000D03*
X140335000Y-74295000D03*
D12*
X191008000Y-111132000D03*
X191008000Y-108632000D03*
X191008000Y-106132000D03*
G36*
G01*
X190141823Y-102582000D02*
X191874177Y-102582000D01*
G75*
G02*
X192183000Y-102890823I0J-308823D01*
G01*
X192183000Y-104373177D01*
G75*
G02*
X191874177Y-104682000I-308823J0D01*
G01*
X190141823Y-104682000D01*
G75*
G02*
X189833000Y-104373177I0J308823D01*
G01*
X189833000Y-102890823D01*
G75*
G02*
X190141823Y-102582000I308823J0D01*
G01*
G37*
D15*
X191008000Y-83018000D03*
G36*
G01*
X190116823Y-79468000D02*
X191899177Y-79468000D01*
G75*
G02*
X192208000Y-79776823I0J-308823D01*
G01*
X192208000Y-81259177D01*
G75*
G02*
X191899177Y-81568000I-308823J0D01*
G01*
X190116823Y-81568000D01*
G75*
G02*
X189808000Y-81259177I0J308823D01*
G01*
X189808000Y-79776823D01*
G75*
G02*
X190116823Y-79468000I308823J0D01*
G01*
G37*
D16*
X183435000Y-73025000D03*
X180935000Y-73025000D03*
G36*
G01*
X177385000Y-73891177D02*
X177385000Y-72158823D01*
G75*
G02*
X177693823Y-71850000I308823J0D01*
G01*
X179176177Y-71850000D01*
G75*
G02*
X179485000Y-72158823I0J-308823D01*
G01*
X179485000Y-73891177D01*
G75*
G02*
X179176177Y-74200000I-308823J0D01*
G01*
X177693823Y-74200000D01*
G75*
G02*
X177385000Y-73891177I0J308823D01*
G01*
G37*
X172346000Y-73025000D03*
X169846000Y-73025000D03*
X167346000Y-73025000D03*
G36*
G01*
X163796000Y-73891177D02*
X163796000Y-72158823D01*
G75*
G02*
X164104823Y-71850000I308823J0D01*
G01*
X165587177Y-71850000D01*
G75*
G02*
X165896000Y-72158823I0J-308823D01*
G01*
X165896000Y-73891177D01*
G75*
G02*
X165587177Y-74200000I-308823J0D01*
G01*
X164104823Y-74200000D01*
G75*
G02*
X163796000Y-73891177I0J308823D01*
G01*
G37*
D12*
X191008000Y-139580000D03*
X191008000Y-137080000D03*
X191008000Y-134580000D03*
G36*
G01*
X190141823Y-131030000D02*
X191874177Y-131030000D01*
G75*
G02*
X192183000Y-131338823I0J-308823D01*
G01*
X192183000Y-132821177D01*
G75*
G02*
X191874177Y-133130000I-308823J0D01*
G01*
X190141823Y-133130000D01*
G75*
G02*
X189833000Y-132821177I0J308823D01*
G01*
X189833000Y-131338823D01*
G75*
G02*
X190141823Y-131030000I308823J0D01*
G01*
G37*
G36*
G01*
X158329000Y-141094000D02*
X156379000Y-141094000D01*
G75*
G02*
X155404000Y-140119000I0J975000D01*
G01*
X155404000Y-138169000D01*
G75*
G02*
X156379000Y-137194000I975000J0D01*
G01*
X158329000Y-137194000D01*
G75*
G02*
X159304000Y-138169000I0J-975000D01*
G01*
X159304000Y-140119000D01*
G75*
G02*
X158329000Y-141094000I-975000J0D01*
G01*
G37*
G36*
G01*
X153754000Y-143844000D02*
X151554000Y-143844000D01*
G75*
G02*
X150704000Y-142994000I0J850000D01*
G01*
X150704000Y-141294000D01*
G75*
G02*
X151554000Y-140444000I850000J0D01*
G01*
X153754000Y-140444000D01*
G75*
G02*
X154604000Y-141294000I0J-850000D01*
G01*
X154604000Y-142994000D01*
G75*
G02*
X153754000Y-143844000I-850000J0D01*
G01*
G37*
D17*
X152654000Y-136144000D03*
G36*
G01*
X184300000Y-81363500D02*
X184300000Y-80688500D01*
G75*
G02*
X184637500Y-80351000I337500J0D01*
G01*
X185412500Y-80351000D01*
G75*
G02*
X185750000Y-80688500I0J-337500D01*
G01*
X185750000Y-81363500D01*
G75*
G02*
X185412500Y-81701000I-337500J0D01*
G01*
X184637500Y-81701000D01*
G75*
G02*
X184300000Y-81363500I0J337500D01*
G01*
G37*
G36*
G01*
X182550000Y-81363500D02*
X182550000Y-80688500D01*
G75*
G02*
X182887500Y-80351000I337500J0D01*
G01*
X183662500Y-80351000D01*
G75*
G02*
X184000000Y-80688500I0J-337500D01*
G01*
X184000000Y-81363500D01*
G75*
G02*
X183662500Y-81701000I-337500J0D01*
G01*
X182887500Y-81701000D01*
G75*
G02*
X182550000Y-81363500I0J337500D01*
G01*
G37*
G36*
G01*
X163255000Y-93860176D02*
X163255000Y-95369824D01*
G75*
G02*
X162934824Y-95690000I-320176J0D01*
G01*
X161750176Y-95690000D01*
G75*
G02*
X161430000Y-95369824I0J320176D01*
G01*
X161430000Y-93860176D01*
G75*
G02*
X161750176Y-93540000I320176J0D01*
G01*
X162934824Y-93540000D01*
G75*
G02*
X163255000Y-93860176I0J-320176D01*
G01*
G37*
G36*
G01*
X166230000Y-93860176D02*
X166230000Y-95369824D01*
G75*
G02*
X165909824Y-95690000I-320176J0D01*
G01*
X164725176Y-95690000D01*
G75*
G02*
X164405000Y-95369824I0J320176D01*
G01*
X164405000Y-93860176D01*
G75*
G02*
X164725176Y-93540000I320176J0D01*
G01*
X165909824Y-93540000D01*
G75*
G02*
X166230000Y-93860176I0J-320176D01*
G01*
G37*
G36*
G01*
X184300000Y-97111500D02*
X184300000Y-96436500D01*
G75*
G02*
X184637500Y-96099000I337500J0D01*
G01*
X185412500Y-96099000D01*
G75*
G02*
X185750000Y-96436500I0J-337500D01*
G01*
X185750000Y-97111500D01*
G75*
G02*
X185412500Y-97449000I-337500J0D01*
G01*
X184637500Y-97449000D01*
G75*
G02*
X184300000Y-97111500I0J337500D01*
G01*
G37*
G36*
G01*
X182550000Y-97111500D02*
X182550000Y-96436500D01*
G75*
G02*
X182887500Y-96099000I337500J0D01*
G01*
X183662500Y-96099000D01*
G75*
G02*
X184000000Y-96436500I0J-337500D01*
G01*
X184000000Y-97111500D01*
G75*
G02*
X183662500Y-97449000I-337500J0D01*
G01*
X182887500Y-97449000D01*
G75*
G02*
X182550000Y-97111500I0J337500D01*
G01*
G37*
G36*
G01*
X187810000Y-84752500D02*
X187810000Y-85427500D01*
G75*
G02*
X187472500Y-85765000I-337500J0D01*
G01*
X186697500Y-85765000D01*
G75*
G02*
X186360000Y-85427500I0J337500D01*
G01*
X186360000Y-84752500D01*
G75*
G02*
X186697500Y-84415000I337500J0D01*
G01*
X187472500Y-84415000D01*
G75*
G02*
X187810000Y-84752500I0J-337500D01*
G01*
G37*
G36*
G01*
X189560000Y-84752500D02*
X189560000Y-85427500D01*
G75*
G02*
X189222500Y-85765000I-337500J0D01*
G01*
X188447500Y-85765000D01*
G75*
G02*
X188110000Y-85427500I0J337500D01*
G01*
X188110000Y-84752500D01*
G75*
G02*
X188447500Y-84415000I337500J0D01*
G01*
X189222500Y-84415000D01*
G75*
G02*
X189560000Y-84752500I0J-337500D01*
G01*
G37*
G36*
G01*
X173505000Y-75902500D02*
X173505000Y-75227500D01*
G75*
G02*
X173842500Y-74890000I337500J0D01*
G01*
X174617500Y-74890000D01*
G75*
G02*
X174955000Y-75227500I0J-337500D01*
G01*
X174955000Y-75902500D01*
G75*
G02*
X174617500Y-76240000I-337500J0D01*
G01*
X173842500Y-76240000D01*
G75*
G02*
X173505000Y-75902500I0J337500D01*
G01*
G37*
G36*
G01*
X171755000Y-75902500D02*
X171755000Y-75227500D01*
G75*
G02*
X172092500Y-74890000I337500J0D01*
G01*
X172867500Y-74890000D01*
G75*
G02*
X173205000Y-75227500I0J-337500D01*
G01*
X173205000Y-75902500D01*
G75*
G02*
X172867500Y-76240000I-337500J0D01*
G01*
X172092500Y-76240000D01*
G75*
G02*
X171755000Y-75902500I0J337500D01*
G01*
G37*
G36*
G01*
X163255000Y-109735176D02*
X163255000Y-111244824D01*
G75*
G02*
X162934824Y-111565000I-320176J0D01*
G01*
X161750176Y-111565000D01*
G75*
G02*
X161430000Y-111244824I0J320176D01*
G01*
X161430000Y-109735176D01*
G75*
G02*
X161750176Y-109415000I320176J0D01*
G01*
X162934824Y-109415000D01*
G75*
G02*
X163255000Y-109735176I0J-320176D01*
G01*
G37*
G36*
G01*
X166230000Y-109735176D02*
X166230000Y-111244824D01*
G75*
G02*
X165909824Y-111565000I-320176J0D01*
G01*
X164725176Y-111565000D01*
G75*
G02*
X164405000Y-111244824I0J320176D01*
G01*
X164405000Y-109735176D01*
G75*
G02*
X164725176Y-109415000I320176J0D01*
G01*
X165909824Y-109415000D01*
G75*
G02*
X166230000Y-109735176I0J-320176D01*
G01*
G37*
G36*
G01*
X187810000Y-82847500D02*
X187810000Y-83522500D01*
G75*
G02*
X187472500Y-83860000I-337500J0D01*
G01*
X186697500Y-83860000D01*
G75*
G02*
X186360000Y-83522500I0J337500D01*
G01*
X186360000Y-82847500D01*
G75*
G02*
X186697500Y-82510000I337500J0D01*
G01*
X187472500Y-82510000D01*
G75*
G02*
X187810000Y-82847500I0J-337500D01*
G01*
G37*
G36*
G01*
X189560000Y-82847500D02*
X189560000Y-83522500D01*
G75*
G02*
X189222500Y-83860000I-337500J0D01*
G01*
X188447500Y-83860000D01*
G75*
G02*
X188110000Y-83522500I0J337500D01*
G01*
X188110000Y-82847500D01*
G75*
G02*
X188447500Y-82510000I337500J0D01*
G01*
X189222500Y-82510000D01*
G75*
G02*
X189560000Y-82847500I0J-337500D01*
G01*
G37*
G36*
G01*
X184808000Y-113113500D02*
X184808000Y-112438500D01*
G75*
G02*
X185145500Y-112101000I337500J0D01*
G01*
X185920500Y-112101000D01*
G75*
G02*
X186258000Y-112438500I0J-337500D01*
G01*
X186258000Y-113113500D01*
G75*
G02*
X185920500Y-113451000I-337500J0D01*
G01*
X185145500Y-113451000D01*
G75*
G02*
X184808000Y-113113500I0J337500D01*
G01*
G37*
G36*
G01*
X183058000Y-113113500D02*
X183058000Y-112438500D01*
G75*
G02*
X183395500Y-112101000I337500J0D01*
G01*
X184170500Y-112101000D01*
G75*
G02*
X184508000Y-112438500I0J-337500D01*
G01*
X184508000Y-113113500D01*
G75*
G02*
X184170500Y-113451000I-337500J0D01*
G01*
X183395500Y-113451000D01*
G75*
G02*
X183058000Y-113113500I0J337500D01*
G01*
G37*
G36*
G01*
X149014500Y-124610000D02*
X149689500Y-124610000D01*
G75*
G02*
X150027000Y-124947500I0J-337500D01*
G01*
X150027000Y-125722500D01*
G75*
G02*
X149689500Y-126060000I-337500J0D01*
G01*
X149014500Y-126060000D01*
G75*
G02*
X148677000Y-125722500I0J337500D01*
G01*
X148677000Y-124947500D01*
G75*
G02*
X149014500Y-124610000I337500J0D01*
G01*
G37*
G36*
G01*
X149014500Y-122860000D02*
X149689500Y-122860000D01*
G75*
G02*
X150027000Y-123197500I0J-337500D01*
G01*
X150027000Y-123972500D01*
G75*
G02*
X149689500Y-124310000I-337500J0D01*
G01*
X149014500Y-124310000D01*
G75*
G02*
X148677000Y-123972500I0J337500D01*
G01*
X148677000Y-123197500D01*
G75*
G02*
X149014500Y-122860000I337500J0D01*
G01*
G37*
G36*
G01*
X163255000Y-125610176D02*
X163255000Y-127119824D01*
G75*
G02*
X162934824Y-127440000I-320176J0D01*
G01*
X161750176Y-127440000D01*
G75*
G02*
X161430000Y-127119824I0J320176D01*
G01*
X161430000Y-125610176D01*
G75*
G02*
X161750176Y-125290000I320176J0D01*
G01*
X162934824Y-125290000D01*
G75*
G02*
X163255000Y-125610176I0J-320176D01*
G01*
G37*
G36*
G01*
X166230000Y-125610176D02*
X166230000Y-127119824D01*
G75*
G02*
X165909824Y-127440000I-320176J0D01*
G01*
X164725176Y-127440000D01*
G75*
G02*
X164405000Y-127119824I0J320176D01*
G01*
X164405000Y-125610176D01*
G75*
G02*
X164725176Y-125290000I320176J0D01*
G01*
X165909824Y-125290000D01*
G75*
G02*
X166230000Y-125610176I0J-320176D01*
G01*
G37*
D18*
X185420000Y-91440000D03*
X182880000Y-91440000D03*
X180340000Y-91440000D03*
X177800000Y-91440000D03*
X175260000Y-91440000D03*
X172720000Y-91440000D03*
X170180000Y-91440000D03*
X167640000Y-91440000D03*
X167640000Y-78740000D03*
X170180000Y-78740000D03*
X172720000Y-78740000D03*
X175260000Y-78740000D03*
X177800000Y-78740000D03*
X180340000Y-78740000D03*
X182880000Y-78740000D03*
X185420000Y-78740000D03*
X185420000Y-107315000D03*
X182880000Y-107315000D03*
X180340000Y-107315000D03*
X177800000Y-107315000D03*
X175260000Y-107315000D03*
X172720000Y-107315000D03*
X170180000Y-107315000D03*
X167640000Y-107315000D03*
X167640000Y-94615000D03*
X170180000Y-94615000D03*
X172720000Y-94615000D03*
X175260000Y-94615000D03*
X177800000Y-94615000D03*
X180340000Y-94615000D03*
X182880000Y-94615000D03*
X185420000Y-94615000D03*
X185420000Y-123190000D03*
X182880000Y-123190000D03*
X180340000Y-123190000D03*
X177800000Y-123190000D03*
X175260000Y-123190000D03*
X172720000Y-123190000D03*
X170180000Y-123190000D03*
X167640000Y-123190000D03*
X167640000Y-110490000D03*
X170180000Y-110490000D03*
X172720000Y-110490000D03*
X175260000Y-110490000D03*
X177800000Y-110490000D03*
X180340000Y-110490000D03*
X182880000Y-110490000D03*
X185420000Y-110490000D03*
X185420000Y-139065000D03*
X182880000Y-139065000D03*
X180340000Y-139065000D03*
X177800000Y-139065000D03*
X175260000Y-139065000D03*
X172720000Y-139065000D03*
X170180000Y-139065000D03*
X167640000Y-139065000D03*
X167640000Y-126365000D03*
X170180000Y-126365000D03*
X172720000Y-126365000D03*
X175260000Y-126365000D03*
X177800000Y-126365000D03*
X180340000Y-126365000D03*
X182880000Y-126365000D03*
X185420000Y-126365000D03*
G36*
G01*
X184300000Y-129242500D02*
X184300000Y-128567500D01*
G75*
G02*
X184637500Y-128230000I337500J0D01*
G01*
X185412500Y-128230000D01*
G75*
G02*
X185750000Y-128567500I0J-337500D01*
G01*
X185750000Y-129242500D01*
G75*
G02*
X185412500Y-129580000I-337500J0D01*
G01*
X184637500Y-129580000D01*
G75*
G02*
X184300000Y-129242500I0J337500D01*
G01*
G37*
G36*
G01*
X182550000Y-129242500D02*
X182550000Y-128567500D01*
G75*
G02*
X182887500Y-128230000I337500J0D01*
G01*
X183662500Y-128230000D01*
G75*
G02*
X184000000Y-128567500I0J-337500D01*
G01*
X184000000Y-129242500D01*
G75*
G02*
X183662500Y-129580000I-337500J0D01*
G01*
X182887500Y-129580000D01*
G75*
G02*
X182550000Y-129242500I0J337500D01*
G01*
G37*
G36*
G01*
X166230000Y-77985176D02*
X166230000Y-79494824D01*
G75*
G02*
X165909824Y-79815000I-320176J0D01*
G01*
X164725176Y-79815000D01*
G75*
G02*
X164405000Y-79494824I0J320176D01*
G01*
X164405000Y-77985176D01*
G75*
G02*
X164725176Y-77665000I320176J0D01*
G01*
X165909824Y-77665000D01*
G75*
G02*
X166230000Y-77985176I0J-320176D01*
G01*
G37*
G36*
G01*
X163255000Y-77985176D02*
X163255000Y-79494824D01*
G75*
G02*
X162934824Y-79815000I-320176J0D01*
G01*
X161750176Y-79815000D01*
G75*
G02*
X161430000Y-79494824I0J320176D01*
G01*
X161430000Y-77985176D01*
G75*
G02*
X161750176Y-77665000I320176J0D01*
G01*
X162934824Y-77665000D01*
G75*
G02*
X163255000Y-77985176I0J-320176D01*
G01*
G37*
M02*
