G04 #@! TF.GenerationSoftware,KiCad,Pcbnew,5.1.6*
G04 #@! TF.CreationDate,2020-07-21T22:46:31+02:00*
G04 #@! TF.ProjectId,esp32_stepper_driver,65737033-325f-4737-9465-707065725f64,rev?*
G04 #@! TF.SameCoordinates,Original*
G04 #@! TF.FileFunction,Paste,Bot*
G04 #@! TF.FilePolarity,Positive*
%FSLAX46Y46*%
G04 Gerber Fmt 4.6, Leading zero omitted, Abs format (unit mm)*
G04 Created by KiCad (PCBNEW 5.1.6) date 2020-07-21 22:46:31*
%MOMM*%
%LPD*%
G01*
G04 APERTURE LIST*
%ADD10R,0.900000X0.800000*%
G04 APERTURE END LIST*
G36*
G01*
X155379000Y-97513000D02*
X155379000Y-97813000D01*
G75*
G02*
X155229000Y-97963000I-150000J0D01*
G01*
X153479000Y-97963000D01*
G75*
G02*
X153329000Y-97813000I0J150000D01*
G01*
X153329000Y-97513000D01*
G75*
G02*
X153479000Y-97363000I150000J0D01*
G01*
X155229000Y-97363000D01*
G75*
G02*
X155379000Y-97513000I0J-150000D01*
G01*
G37*
G36*
G01*
X155379000Y-98783000D02*
X155379000Y-99083000D01*
G75*
G02*
X155229000Y-99233000I-150000J0D01*
G01*
X153479000Y-99233000D01*
G75*
G02*
X153329000Y-99083000I0J150000D01*
G01*
X153329000Y-98783000D01*
G75*
G02*
X153479000Y-98633000I150000J0D01*
G01*
X155229000Y-98633000D01*
G75*
G02*
X155379000Y-98783000I0J-150000D01*
G01*
G37*
G36*
G01*
X155379000Y-100053000D02*
X155379000Y-100353000D01*
G75*
G02*
X155229000Y-100503000I-150000J0D01*
G01*
X153479000Y-100503000D01*
G75*
G02*
X153329000Y-100353000I0J150000D01*
G01*
X153329000Y-100053000D01*
G75*
G02*
X153479000Y-99903000I150000J0D01*
G01*
X155229000Y-99903000D01*
G75*
G02*
X155379000Y-100053000I0J-150000D01*
G01*
G37*
G36*
G01*
X155379000Y-101323000D02*
X155379000Y-101623000D01*
G75*
G02*
X155229000Y-101773000I-150000J0D01*
G01*
X153479000Y-101773000D01*
G75*
G02*
X153329000Y-101623000I0J150000D01*
G01*
X153329000Y-101323000D01*
G75*
G02*
X153479000Y-101173000I150000J0D01*
G01*
X155229000Y-101173000D01*
G75*
G02*
X155379000Y-101323000I0J-150000D01*
G01*
G37*
G36*
G01*
X155379000Y-102593000D02*
X155379000Y-102893000D01*
G75*
G02*
X155229000Y-103043000I-150000J0D01*
G01*
X153479000Y-103043000D01*
G75*
G02*
X153329000Y-102893000I0J150000D01*
G01*
X153329000Y-102593000D01*
G75*
G02*
X153479000Y-102443000I150000J0D01*
G01*
X155229000Y-102443000D01*
G75*
G02*
X155379000Y-102593000I0J-150000D01*
G01*
G37*
G36*
G01*
X155379000Y-103863000D02*
X155379000Y-104163000D01*
G75*
G02*
X155229000Y-104313000I-150000J0D01*
G01*
X153479000Y-104313000D01*
G75*
G02*
X153329000Y-104163000I0J150000D01*
G01*
X153329000Y-103863000D01*
G75*
G02*
X153479000Y-103713000I150000J0D01*
G01*
X155229000Y-103713000D01*
G75*
G02*
X155379000Y-103863000I0J-150000D01*
G01*
G37*
G36*
G01*
X155379000Y-105133000D02*
X155379000Y-105433000D01*
G75*
G02*
X155229000Y-105583000I-150000J0D01*
G01*
X153479000Y-105583000D01*
G75*
G02*
X153329000Y-105433000I0J150000D01*
G01*
X153329000Y-105133000D01*
G75*
G02*
X153479000Y-104983000I150000J0D01*
G01*
X155229000Y-104983000D01*
G75*
G02*
X155379000Y-105133000I0J-150000D01*
G01*
G37*
G36*
G01*
X155379000Y-106403000D02*
X155379000Y-106703000D01*
G75*
G02*
X155229000Y-106853000I-150000J0D01*
G01*
X153479000Y-106853000D01*
G75*
G02*
X153329000Y-106703000I0J150000D01*
G01*
X153329000Y-106403000D01*
G75*
G02*
X153479000Y-106253000I150000J0D01*
G01*
X155229000Y-106253000D01*
G75*
G02*
X155379000Y-106403000I0J-150000D01*
G01*
G37*
G36*
G01*
X164679000Y-106403000D02*
X164679000Y-106703000D01*
G75*
G02*
X164529000Y-106853000I-150000J0D01*
G01*
X162779000Y-106853000D01*
G75*
G02*
X162629000Y-106703000I0J150000D01*
G01*
X162629000Y-106403000D01*
G75*
G02*
X162779000Y-106253000I150000J0D01*
G01*
X164529000Y-106253000D01*
G75*
G02*
X164679000Y-106403000I0J-150000D01*
G01*
G37*
G36*
G01*
X164679000Y-105133000D02*
X164679000Y-105433000D01*
G75*
G02*
X164529000Y-105583000I-150000J0D01*
G01*
X162779000Y-105583000D01*
G75*
G02*
X162629000Y-105433000I0J150000D01*
G01*
X162629000Y-105133000D01*
G75*
G02*
X162779000Y-104983000I150000J0D01*
G01*
X164529000Y-104983000D01*
G75*
G02*
X164679000Y-105133000I0J-150000D01*
G01*
G37*
G36*
G01*
X164679000Y-103863000D02*
X164679000Y-104163000D01*
G75*
G02*
X164529000Y-104313000I-150000J0D01*
G01*
X162779000Y-104313000D01*
G75*
G02*
X162629000Y-104163000I0J150000D01*
G01*
X162629000Y-103863000D01*
G75*
G02*
X162779000Y-103713000I150000J0D01*
G01*
X164529000Y-103713000D01*
G75*
G02*
X164679000Y-103863000I0J-150000D01*
G01*
G37*
G36*
G01*
X164679000Y-102593000D02*
X164679000Y-102893000D01*
G75*
G02*
X164529000Y-103043000I-150000J0D01*
G01*
X162779000Y-103043000D01*
G75*
G02*
X162629000Y-102893000I0J150000D01*
G01*
X162629000Y-102593000D01*
G75*
G02*
X162779000Y-102443000I150000J0D01*
G01*
X164529000Y-102443000D01*
G75*
G02*
X164679000Y-102593000I0J-150000D01*
G01*
G37*
G36*
G01*
X164679000Y-101323000D02*
X164679000Y-101623000D01*
G75*
G02*
X164529000Y-101773000I-150000J0D01*
G01*
X162779000Y-101773000D01*
G75*
G02*
X162629000Y-101623000I0J150000D01*
G01*
X162629000Y-101323000D01*
G75*
G02*
X162779000Y-101173000I150000J0D01*
G01*
X164529000Y-101173000D01*
G75*
G02*
X164679000Y-101323000I0J-150000D01*
G01*
G37*
G36*
G01*
X164679000Y-100053000D02*
X164679000Y-100353000D01*
G75*
G02*
X164529000Y-100503000I-150000J0D01*
G01*
X162779000Y-100503000D01*
G75*
G02*
X162629000Y-100353000I0J150000D01*
G01*
X162629000Y-100053000D01*
G75*
G02*
X162779000Y-99903000I150000J0D01*
G01*
X164529000Y-99903000D01*
G75*
G02*
X164679000Y-100053000I0J-150000D01*
G01*
G37*
G36*
G01*
X164679000Y-98783000D02*
X164679000Y-99083000D01*
G75*
G02*
X164529000Y-99233000I-150000J0D01*
G01*
X162779000Y-99233000D01*
G75*
G02*
X162629000Y-99083000I0J150000D01*
G01*
X162629000Y-98783000D01*
G75*
G02*
X162779000Y-98633000I150000J0D01*
G01*
X164529000Y-98633000D01*
G75*
G02*
X164679000Y-98783000I0J-150000D01*
G01*
G37*
G36*
G01*
X164679000Y-97513000D02*
X164679000Y-97813000D01*
G75*
G02*
X164529000Y-97963000I-150000J0D01*
G01*
X162779000Y-97963000D01*
G75*
G02*
X162629000Y-97813000I0J150000D01*
G01*
X162629000Y-97513000D01*
G75*
G02*
X162779000Y-97363000I150000J0D01*
G01*
X164529000Y-97363000D01*
G75*
G02*
X164679000Y-97513000I0J-150000D01*
G01*
G37*
G36*
G01*
X148312000Y-121943000D02*
X148312000Y-121643000D01*
G75*
G02*
X148462000Y-121493000I150000J0D01*
G01*
X150112000Y-121493000D01*
G75*
G02*
X150262000Y-121643000I0J-150000D01*
G01*
X150262000Y-121943000D01*
G75*
G02*
X150112000Y-122093000I-150000J0D01*
G01*
X148462000Y-122093000D01*
G75*
G02*
X148312000Y-121943000I0J150000D01*
G01*
G37*
G36*
G01*
X148312000Y-120673000D02*
X148312000Y-120373000D01*
G75*
G02*
X148462000Y-120223000I150000J0D01*
G01*
X150112000Y-120223000D01*
G75*
G02*
X150262000Y-120373000I0J-150000D01*
G01*
X150262000Y-120673000D01*
G75*
G02*
X150112000Y-120823000I-150000J0D01*
G01*
X148462000Y-120823000D01*
G75*
G02*
X148312000Y-120673000I0J150000D01*
G01*
G37*
G36*
G01*
X148312000Y-119403000D02*
X148312000Y-119103000D01*
G75*
G02*
X148462000Y-118953000I150000J0D01*
G01*
X150112000Y-118953000D01*
G75*
G02*
X150262000Y-119103000I0J-150000D01*
G01*
X150262000Y-119403000D01*
G75*
G02*
X150112000Y-119553000I-150000J0D01*
G01*
X148462000Y-119553000D01*
G75*
G02*
X148312000Y-119403000I0J150000D01*
G01*
G37*
G36*
G01*
X148312000Y-118133000D02*
X148312000Y-117833000D01*
G75*
G02*
X148462000Y-117683000I150000J0D01*
G01*
X150112000Y-117683000D01*
G75*
G02*
X150262000Y-117833000I0J-150000D01*
G01*
X150262000Y-118133000D01*
G75*
G02*
X150112000Y-118283000I-150000J0D01*
G01*
X148462000Y-118283000D01*
G75*
G02*
X148312000Y-118133000I0J150000D01*
G01*
G37*
G36*
G01*
X148312000Y-116863000D02*
X148312000Y-116563000D01*
G75*
G02*
X148462000Y-116413000I150000J0D01*
G01*
X150112000Y-116413000D01*
G75*
G02*
X150262000Y-116563000I0J-150000D01*
G01*
X150262000Y-116863000D01*
G75*
G02*
X150112000Y-117013000I-150000J0D01*
G01*
X148462000Y-117013000D01*
G75*
G02*
X148312000Y-116863000I0J150000D01*
G01*
G37*
G36*
G01*
X148312000Y-115593000D02*
X148312000Y-115293000D01*
G75*
G02*
X148462000Y-115143000I150000J0D01*
G01*
X150112000Y-115143000D01*
G75*
G02*
X150262000Y-115293000I0J-150000D01*
G01*
X150262000Y-115593000D01*
G75*
G02*
X150112000Y-115743000I-150000J0D01*
G01*
X148462000Y-115743000D01*
G75*
G02*
X148312000Y-115593000I0J150000D01*
G01*
G37*
G36*
G01*
X148312000Y-114323000D02*
X148312000Y-114023000D01*
G75*
G02*
X148462000Y-113873000I150000J0D01*
G01*
X150112000Y-113873000D01*
G75*
G02*
X150262000Y-114023000I0J-150000D01*
G01*
X150262000Y-114323000D01*
G75*
G02*
X150112000Y-114473000I-150000J0D01*
G01*
X148462000Y-114473000D01*
G75*
G02*
X148312000Y-114323000I0J150000D01*
G01*
G37*
G36*
G01*
X148312000Y-113053000D02*
X148312000Y-112753000D01*
G75*
G02*
X148462000Y-112603000I150000J0D01*
G01*
X150112000Y-112603000D01*
G75*
G02*
X150262000Y-112753000I0J-150000D01*
G01*
X150262000Y-113053000D01*
G75*
G02*
X150112000Y-113203000I-150000J0D01*
G01*
X148462000Y-113203000D01*
G75*
G02*
X148312000Y-113053000I0J150000D01*
G01*
G37*
G36*
G01*
X143362000Y-113053000D02*
X143362000Y-112753000D01*
G75*
G02*
X143512000Y-112603000I150000J0D01*
G01*
X145162000Y-112603000D01*
G75*
G02*
X145312000Y-112753000I0J-150000D01*
G01*
X145312000Y-113053000D01*
G75*
G02*
X145162000Y-113203000I-150000J0D01*
G01*
X143512000Y-113203000D01*
G75*
G02*
X143362000Y-113053000I0J150000D01*
G01*
G37*
G36*
G01*
X143362000Y-114323000D02*
X143362000Y-114023000D01*
G75*
G02*
X143512000Y-113873000I150000J0D01*
G01*
X145162000Y-113873000D01*
G75*
G02*
X145312000Y-114023000I0J-150000D01*
G01*
X145312000Y-114323000D01*
G75*
G02*
X145162000Y-114473000I-150000J0D01*
G01*
X143512000Y-114473000D01*
G75*
G02*
X143362000Y-114323000I0J150000D01*
G01*
G37*
G36*
G01*
X143362000Y-115593000D02*
X143362000Y-115293000D01*
G75*
G02*
X143512000Y-115143000I150000J0D01*
G01*
X145162000Y-115143000D01*
G75*
G02*
X145312000Y-115293000I0J-150000D01*
G01*
X145312000Y-115593000D01*
G75*
G02*
X145162000Y-115743000I-150000J0D01*
G01*
X143512000Y-115743000D01*
G75*
G02*
X143362000Y-115593000I0J150000D01*
G01*
G37*
G36*
G01*
X143362000Y-116863000D02*
X143362000Y-116563000D01*
G75*
G02*
X143512000Y-116413000I150000J0D01*
G01*
X145162000Y-116413000D01*
G75*
G02*
X145312000Y-116563000I0J-150000D01*
G01*
X145312000Y-116863000D01*
G75*
G02*
X145162000Y-117013000I-150000J0D01*
G01*
X143512000Y-117013000D01*
G75*
G02*
X143362000Y-116863000I0J150000D01*
G01*
G37*
G36*
G01*
X143362000Y-118133000D02*
X143362000Y-117833000D01*
G75*
G02*
X143512000Y-117683000I150000J0D01*
G01*
X145162000Y-117683000D01*
G75*
G02*
X145312000Y-117833000I0J-150000D01*
G01*
X145312000Y-118133000D01*
G75*
G02*
X145162000Y-118283000I-150000J0D01*
G01*
X143512000Y-118283000D01*
G75*
G02*
X143362000Y-118133000I0J150000D01*
G01*
G37*
G36*
G01*
X143362000Y-119403000D02*
X143362000Y-119103000D01*
G75*
G02*
X143512000Y-118953000I150000J0D01*
G01*
X145162000Y-118953000D01*
G75*
G02*
X145312000Y-119103000I0J-150000D01*
G01*
X145312000Y-119403000D01*
G75*
G02*
X145162000Y-119553000I-150000J0D01*
G01*
X143512000Y-119553000D01*
G75*
G02*
X143362000Y-119403000I0J150000D01*
G01*
G37*
G36*
G01*
X143362000Y-120673000D02*
X143362000Y-120373000D01*
G75*
G02*
X143512000Y-120223000I150000J0D01*
G01*
X145162000Y-120223000D01*
G75*
G02*
X145312000Y-120373000I0J-150000D01*
G01*
X145312000Y-120673000D01*
G75*
G02*
X145162000Y-120823000I-150000J0D01*
G01*
X143512000Y-120823000D01*
G75*
G02*
X143362000Y-120673000I0J150000D01*
G01*
G37*
G36*
G01*
X143362000Y-121943000D02*
X143362000Y-121643000D01*
G75*
G02*
X143512000Y-121493000I150000J0D01*
G01*
X145162000Y-121493000D01*
G75*
G02*
X145312000Y-121643000I0J-150000D01*
G01*
X145312000Y-121943000D01*
G75*
G02*
X145162000Y-122093000I-150000J0D01*
G01*
X143512000Y-122093000D01*
G75*
G02*
X143362000Y-121943000I0J150000D01*
G01*
G37*
G36*
G01*
X180342250Y-75596000D02*
X179829750Y-75596000D01*
G75*
G02*
X179611000Y-75377250I0J218750D01*
G01*
X179611000Y-74939750D01*
G75*
G02*
X179829750Y-74721000I218750J0D01*
G01*
X180342250Y-74721000D01*
G75*
G02*
X180561000Y-74939750I0J-218750D01*
G01*
X180561000Y-75377250D01*
G75*
G02*
X180342250Y-75596000I-218750J0D01*
G01*
G37*
G36*
G01*
X180342250Y-77171000D02*
X179829750Y-77171000D01*
G75*
G02*
X179611000Y-76952250I0J218750D01*
G01*
X179611000Y-76514750D01*
G75*
G02*
X179829750Y-76296000I218750J0D01*
G01*
X180342250Y-76296000D01*
G75*
G02*
X180561000Y-76514750I0J-218750D01*
G01*
X180561000Y-76952250D01*
G75*
G02*
X180342250Y-77171000I-218750J0D01*
G01*
G37*
G36*
G01*
X183390250Y-75596000D02*
X182877750Y-75596000D01*
G75*
G02*
X182659000Y-75377250I0J218750D01*
G01*
X182659000Y-74939750D01*
G75*
G02*
X182877750Y-74721000I218750J0D01*
G01*
X183390250Y-74721000D01*
G75*
G02*
X183609000Y-74939750I0J-218750D01*
G01*
X183609000Y-75377250D01*
G75*
G02*
X183390250Y-75596000I-218750J0D01*
G01*
G37*
G36*
G01*
X183390250Y-77171000D02*
X182877750Y-77171000D01*
G75*
G02*
X182659000Y-76952250I0J218750D01*
G01*
X182659000Y-76514750D01*
G75*
G02*
X182877750Y-76296000I218750J0D01*
G01*
X183390250Y-76296000D01*
G75*
G02*
X183609000Y-76514750I0J-218750D01*
G01*
X183609000Y-76952250D01*
G75*
G02*
X183390250Y-77171000I-218750J0D01*
G01*
G37*
G36*
G01*
X152148250Y-114966000D02*
X151635750Y-114966000D01*
G75*
G02*
X151417000Y-114747250I0J218750D01*
G01*
X151417000Y-114309750D01*
G75*
G02*
X151635750Y-114091000I218750J0D01*
G01*
X152148250Y-114091000D01*
G75*
G02*
X152367000Y-114309750I0J-218750D01*
G01*
X152367000Y-114747250D01*
G75*
G02*
X152148250Y-114966000I-218750J0D01*
G01*
G37*
G36*
G01*
X152148250Y-116541000D02*
X151635750Y-116541000D01*
G75*
G02*
X151417000Y-116322250I0J218750D01*
G01*
X151417000Y-115884750D01*
G75*
G02*
X151635750Y-115666000I218750J0D01*
G01*
X152148250Y-115666000D01*
G75*
G02*
X152367000Y-115884750I0J-218750D01*
G01*
X152367000Y-116322250D01*
G75*
G02*
X152148250Y-116541000I-218750J0D01*
G01*
G37*
G36*
G01*
X153413750Y-115666000D02*
X153926250Y-115666000D01*
G75*
G02*
X154145000Y-115884750I0J-218750D01*
G01*
X154145000Y-116322250D01*
G75*
G02*
X153926250Y-116541000I-218750J0D01*
G01*
X153413750Y-116541000D01*
G75*
G02*
X153195000Y-116322250I0J218750D01*
G01*
X153195000Y-115884750D01*
G75*
G02*
X153413750Y-115666000I218750J0D01*
G01*
G37*
G36*
G01*
X153413750Y-114091000D02*
X153926250Y-114091000D01*
G75*
G02*
X154145000Y-114309750I0J-218750D01*
G01*
X154145000Y-114747250D01*
G75*
G02*
X153926250Y-114966000I-218750J0D01*
G01*
X153413750Y-114966000D01*
G75*
G02*
X153195000Y-114747250I0J218750D01*
G01*
X153195000Y-114309750D01*
G75*
G02*
X153413750Y-114091000I218750J0D01*
G01*
G37*
D10*
X157464000Y-117475000D03*
X155464000Y-116525000D03*
X155464000Y-118425000D03*
X157464000Y-113345000D03*
X155464000Y-112395000D03*
X155464000Y-114295000D03*
G36*
G01*
X184500000Y-81263500D02*
X184500000Y-80788500D01*
G75*
G02*
X184737500Y-80551000I237500J0D01*
G01*
X185312500Y-80551000D01*
G75*
G02*
X185550000Y-80788500I0J-237500D01*
G01*
X185550000Y-81263500D01*
G75*
G02*
X185312500Y-81501000I-237500J0D01*
G01*
X184737500Y-81501000D01*
G75*
G02*
X184500000Y-81263500I0J237500D01*
G01*
G37*
G36*
G01*
X182750000Y-81263500D02*
X182750000Y-80788500D01*
G75*
G02*
X182987500Y-80551000I237500J0D01*
G01*
X183562500Y-80551000D01*
G75*
G02*
X183800000Y-80788500I0J-237500D01*
G01*
X183800000Y-81263500D01*
G75*
G02*
X183562500Y-81501000I-237500J0D01*
G01*
X182987500Y-81501000D01*
G75*
G02*
X182750000Y-81263500I0J237500D01*
G01*
G37*
G36*
G01*
X163055000Y-93990000D02*
X163055000Y-95240000D01*
G75*
G02*
X162805000Y-95490000I-250000J0D01*
G01*
X161880000Y-95490000D01*
G75*
G02*
X161630000Y-95240000I0J250000D01*
G01*
X161630000Y-93990000D01*
G75*
G02*
X161880000Y-93740000I250000J0D01*
G01*
X162805000Y-93740000D01*
G75*
G02*
X163055000Y-93990000I0J-250000D01*
G01*
G37*
G36*
G01*
X166030000Y-93990000D02*
X166030000Y-95240000D01*
G75*
G02*
X165780000Y-95490000I-250000J0D01*
G01*
X164855000Y-95490000D01*
G75*
G02*
X164605000Y-95240000I0J250000D01*
G01*
X164605000Y-93990000D01*
G75*
G02*
X164855000Y-93740000I250000J0D01*
G01*
X165780000Y-93740000D01*
G75*
G02*
X166030000Y-93990000I0J-250000D01*
G01*
G37*
G36*
G01*
X184500000Y-97011500D02*
X184500000Y-96536500D01*
G75*
G02*
X184737500Y-96299000I237500J0D01*
G01*
X185312500Y-96299000D01*
G75*
G02*
X185550000Y-96536500I0J-237500D01*
G01*
X185550000Y-97011500D01*
G75*
G02*
X185312500Y-97249000I-237500J0D01*
G01*
X184737500Y-97249000D01*
G75*
G02*
X184500000Y-97011500I0J237500D01*
G01*
G37*
G36*
G01*
X182750000Y-97011500D02*
X182750000Y-96536500D01*
G75*
G02*
X182987500Y-96299000I237500J0D01*
G01*
X183562500Y-96299000D01*
G75*
G02*
X183800000Y-96536500I0J-237500D01*
G01*
X183800000Y-97011500D01*
G75*
G02*
X183562500Y-97249000I-237500J0D01*
G01*
X182987500Y-97249000D01*
G75*
G02*
X182750000Y-97011500I0J237500D01*
G01*
G37*
G36*
G01*
X187610000Y-84852500D02*
X187610000Y-85327500D01*
G75*
G02*
X187372500Y-85565000I-237500J0D01*
G01*
X186797500Y-85565000D01*
G75*
G02*
X186560000Y-85327500I0J237500D01*
G01*
X186560000Y-84852500D01*
G75*
G02*
X186797500Y-84615000I237500J0D01*
G01*
X187372500Y-84615000D01*
G75*
G02*
X187610000Y-84852500I0J-237500D01*
G01*
G37*
G36*
G01*
X189360000Y-84852500D02*
X189360000Y-85327500D01*
G75*
G02*
X189122500Y-85565000I-237500J0D01*
G01*
X188547500Y-85565000D01*
G75*
G02*
X188310000Y-85327500I0J237500D01*
G01*
X188310000Y-84852500D01*
G75*
G02*
X188547500Y-84615000I237500J0D01*
G01*
X189122500Y-84615000D01*
G75*
G02*
X189360000Y-84852500I0J-237500D01*
G01*
G37*
G36*
G01*
X173705000Y-75802500D02*
X173705000Y-75327500D01*
G75*
G02*
X173942500Y-75090000I237500J0D01*
G01*
X174517500Y-75090000D01*
G75*
G02*
X174755000Y-75327500I0J-237500D01*
G01*
X174755000Y-75802500D01*
G75*
G02*
X174517500Y-76040000I-237500J0D01*
G01*
X173942500Y-76040000D01*
G75*
G02*
X173705000Y-75802500I0J237500D01*
G01*
G37*
G36*
G01*
X171955000Y-75802500D02*
X171955000Y-75327500D01*
G75*
G02*
X172192500Y-75090000I237500J0D01*
G01*
X172767500Y-75090000D01*
G75*
G02*
X173005000Y-75327500I0J-237500D01*
G01*
X173005000Y-75802500D01*
G75*
G02*
X172767500Y-76040000I-237500J0D01*
G01*
X172192500Y-76040000D01*
G75*
G02*
X171955000Y-75802500I0J237500D01*
G01*
G37*
G36*
G01*
X163055000Y-109865000D02*
X163055000Y-111115000D01*
G75*
G02*
X162805000Y-111365000I-250000J0D01*
G01*
X161880000Y-111365000D01*
G75*
G02*
X161630000Y-111115000I0J250000D01*
G01*
X161630000Y-109865000D01*
G75*
G02*
X161880000Y-109615000I250000J0D01*
G01*
X162805000Y-109615000D01*
G75*
G02*
X163055000Y-109865000I0J-250000D01*
G01*
G37*
G36*
G01*
X166030000Y-109865000D02*
X166030000Y-111115000D01*
G75*
G02*
X165780000Y-111365000I-250000J0D01*
G01*
X164855000Y-111365000D01*
G75*
G02*
X164605000Y-111115000I0J250000D01*
G01*
X164605000Y-109865000D01*
G75*
G02*
X164855000Y-109615000I250000J0D01*
G01*
X165780000Y-109615000D01*
G75*
G02*
X166030000Y-109865000I0J-250000D01*
G01*
G37*
G36*
G01*
X187610000Y-82947500D02*
X187610000Y-83422500D01*
G75*
G02*
X187372500Y-83660000I-237500J0D01*
G01*
X186797500Y-83660000D01*
G75*
G02*
X186560000Y-83422500I0J237500D01*
G01*
X186560000Y-82947500D01*
G75*
G02*
X186797500Y-82710000I237500J0D01*
G01*
X187372500Y-82710000D01*
G75*
G02*
X187610000Y-82947500I0J-237500D01*
G01*
G37*
G36*
G01*
X189360000Y-82947500D02*
X189360000Y-83422500D01*
G75*
G02*
X189122500Y-83660000I-237500J0D01*
G01*
X188547500Y-83660000D01*
G75*
G02*
X188310000Y-83422500I0J237500D01*
G01*
X188310000Y-82947500D01*
G75*
G02*
X188547500Y-82710000I237500J0D01*
G01*
X189122500Y-82710000D01*
G75*
G02*
X189360000Y-82947500I0J-237500D01*
G01*
G37*
G36*
G01*
X185008000Y-113013500D02*
X185008000Y-112538500D01*
G75*
G02*
X185245500Y-112301000I237500J0D01*
G01*
X185820500Y-112301000D01*
G75*
G02*
X186058000Y-112538500I0J-237500D01*
G01*
X186058000Y-113013500D01*
G75*
G02*
X185820500Y-113251000I-237500J0D01*
G01*
X185245500Y-113251000D01*
G75*
G02*
X185008000Y-113013500I0J237500D01*
G01*
G37*
G36*
G01*
X183258000Y-113013500D02*
X183258000Y-112538500D01*
G75*
G02*
X183495500Y-112301000I237500J0D01*
G01*
X184070500Y-112301000D01*
G75*
G02*
X184308000Y-112538500I0J-237500D01*
G01*
X184308000Y-113013500D01*
G75*
G02*
X184070500Y-113251000I-237500J0D01*
G01*
X183495500Y-113251000D01*
G75*
G02*
X183258000Y-113013500I0J237500D01*
G01*
G37*
G36*
G01*
X149114500Y-124810000D02*
X149589500Y-124810000D01*
G75*
G02*
X149827000Y-125047500I0J-237500D01*
G01*
X149827000Y-125622500D01*
G75*
G02*
X149589500Y-125860000I-237500J0D01*
G01*
X149114500Y-125860000D01*
G75*
G02*
X148877000Y-125622500I0J237500D01*
G01*
X148877000Y-125047500D01*
G75*
G02*
X149114500Y-124810000I237500J0D01*
G01*
G37*
G36*
G01*
X149114500Y-123060000D02*
X149589500Y-123060000D01*
G75*
G02*
X149827000Y-123297500I0J-237500D01*
G01*
X149827000Y-123872500D01*
G75*
G02*
X149589500Y-124110000I-237500J0D01*
G01*
X149114500Y-124110000D01*
G75*
G02*
X148877000Y-123872500I0J237500D01*
G01*
X148877000Y-123297500D01*
G75*
G02*
X149114500Y-123060000I237500J0D01*
G01*
G37*
G36*
G01*
X163055000Y-125740000D02*
X163055000Y-126990000D01*
G75*
G02*
X162805000Y-127240000I-250000J0D01*
G01*
X161880000Y-127240000D01*
G75*
G02*
X161630000Y-126990000I0J250000D01*
G01*
X161630000Y-125740000D01*
G75*
G02*
X161880000Y-125490000I250000J0D01*
G01*
X162805000Y-125490000D01*
G75*
G02*
X163055000Y-125740000I0J-250000D01*
G01*
G37*
G36*
G01*
X166030000Y-125740000D02*
X166030000Y-126990000D01*
G75*
G02*
X165780000Y-127240000I-250000J0D01*
G01*
X164855000Y-127240000D01*
G75*
G02*
X164605000Y-126990000I0J250000D01*
G01*
X164605000Y-125740000D01*
G75*
G02*
X164855000Y-125490000I250000J0D01*
G01*
X165780000Y-125490000D01*
G75*
G02*
X166030000Y-125740000I0J-250000D01*
G01*
G37*
G36*
G01*
X184500000Y-129142500D02*
X184500000Y-128667500D01*
G75*
G02*
X184737500Y-128430000I237500J0D01*
G01*
X185312500Y-128430000D01*
G75*
G02*
X185550000Y-128667500I0J-237500D01*
G01*
X185550000Y-129142500D01*
G75*
G02*
X185312500Y-129380000I-237500J0D01*
G01*
X184737500Y-129380000D01*
G75*
G02*
X184500000Y-129142500I0J237500D01*
G01*
G37*
G36*
G01*
X182750000Y-129142500D02*
X182750000Y-128667500D01*
G75*
G02*
X182987500Y-128430000I237500J0D01*
G01*
X183562500Y-128430000D01*
G75*
G02*
X183800000Y-128667500I0J-237500D01*
G01*
X183800000Y-129142500D01*
G75*
G02*
X183562500Y-129380000I-237500J0D01*
G01*
X182987500Y-129380000D01*
G75*
G02*
X182750000Y-129142500I0J237500D01*
G01*
G37*
G36*
G01*
X166030000Y-78115000D02*
X166030000Y-79365000D01*
G75*
G02*
X165780000Y-79615000I-250000J0D01*
G01*
X164855000Y-79615000D01*
G75*
G02*
X164605000Y-79365000I0J250000D01*
G01*
X164605000Y-78115000D01*
G75*
G02*
X164855000Y-77865000I250000J0D01*
G01*
X165780000Y-77865000D01*
G75*
G02*
X166030000Y-78115000I0J-250000D01*
G01*
G37*
G36*
G01*
X163055000Y-78115000D02*
X163055000Y-79365000D01*
G75*
G02*
X162805000Y-79615000I-250000J0D01*
G01*
X161880000Y-79615000D01*
G75*
G02*
X161630000Y-79365000I0J250000D01*
G01*
X161630000Y-78115000D01*
G75*
G02*
X161880000Y-77865000I250000J0D01*
G01*
X162805000Y-77865000D01*
G75*
G02*
X163055000Y-78115000I0J-250000D01*
G01*
G37*
M02*
