G04 #@! TF.GenerationSoftware,KiCad,Pcbnew,5.1.6*
G04 #@! TF.CreationDate,2020-07-21T22:46:31+02:00*
G04 #@! TF.ProjectId,esp32_stepper_driver,65737033-325f-4737-9465-707065725f64,rev?*
G04 #@! TF.SameCoordinates,Original*
G04 #@! TF.FileFunction,Legend,Top*
G04 #@! TF.FilePolarity,Positive*
%FSLAX46Y46*%
G04 Gerber Fmt 4.6, Leading zero omitted, Abs format (unit mm)*
G04 Created by KiCad (PCBNEW 5.1.6) date 2020-07-21 22:46:31*
%MOMM*%
%LPD*%
G01*
G04 APERTURE LIST*
%ADD10C,0.300000*%
%ADD11C,0.150000*%
%ADD12C,0.120000*%
G04 APERTURE END LIST*
D10*
X173676857Y-149776571D02*
X173676857Y-148276571D01*
X173676857Y-148848000D02*
X173819714Y-148776571D01*
X174105428Y-148776571D01*
X174248285Y-148848000D01*
X174319714Y-148919428D01*
X174391142Y-149062285D01*
X174391142Y-149490857D01*
X174319714Y-149633714D01*
X174248285Y-149705142D01*
X174105428Y-149776571D01*
X173819714Y-149776571D01*
X173676857Y-149705142D01*
X174891142Y-148776571D02*
X175248285Y-149776571D01*
X175605428Y-148776571D02*
X175248285Y-149776571D01*
X175105428Y-150133714D01*
X175034000Y-150205142D01*
X174891142Y-150276571D01*
X177319714Y-148776571D02*
X177319714Y-149776571D01*
X177319714Y-148919428D02*
X177391142Y-148848000D01*
X177534000Y-148776571D01*
X177748285Y-148776571D01*
X177891142Y-148848000D01*
X177962571Y-148990857D01*
X177962571Y-149776571D01*
X178676857Y-149776571D02*
X178676857Y-148776571D01*
X178676857Y-148276571D02*
X178605428Y-148348000D01*
X178676857Y-148419428D01*
X178748285Y-148348000D01*
X178676857Y-148276571D01*
X178676857Y-148419428D01*
X179391142Y-149776571D02*
X179391142Y-148276571D01*
X179534000Y-149205142D02*
X179962571Y-149776571D01*
X179962571Y-148776571D02*
X179391142Y-149348000D01*
D11*
X160258000Y-71122000D02*
X152908000Y-71122000D01*
X152908000Y-71122000D02*
X151558000Y-71072000D01*
X151558000Y-71072000D02*
X150408000Y-70922000D01*
X150408000Y-70922000D02*
X149308000Y-70722000D01*
X149308000Y-70722000D02*
X148258000Y-70422000D01*
X150108000Y-84422000D02*
X150108000Y-85722000D01*
X160258000Y-76222000D02*
X160258000Y-83422000D01*
X160258000Y-73422000D02*
X160258000Y-71122000D01*
X148258000Y-70422000D02*
X145558000Y-70422000D01*
X145558000Y-70422000D02*
X145558000Y-73422000D01*
X145558000Y-83422000D02*
X145558000Y-76222000D01*
X150558000Y-83822000D02*
X150858000Y-83822000D01*
X150858000Y-83822000D02*
X150858000Y-83522000D01*
X150858000Y-83522000D02*
X150558000Y-83522000D01*
X150558000Y-83522000D02*
X150558000Y-83822000D01*
X150108000Y-84422000D02*
X147108000Y-84422000D01*
D12*
X177225000Y-87690000D02*
X177225000Y-82490000D01*
X172085000Y-87690000D02*
X177225000Y-87690000D01*
X169485000Y-82490000D02*
X177225000Y-82490000D01*
X172085000Y-87690000D02*
X172085000Y-85090000D01*
X172085000Y-85090000D02*
X169485000Y-85090000D01*
X169485000Y-85090000D02*
X169485000Y-82490000D01*
X170815000Y-87690000D02*
X169485000Y-87690000D01*
X169485000Y-87690000D02*
X169485000Y-86360000D01*
X177225000Y-103565000D02*
X177225000Y-98365000D01*
X172085000Y-103565000D02*
X177225000Y-103565000D01*
X169485000Y-98365000D02*
X177225000Y-98365000D01*
X172085000Y-103565000D02*
X172085000Y-100965000D01*
X172085000Y-100965000D02*
X169485000Y-100965000D01*
X169485000Y-100965000D02*
X169485000Y-98365000D01*
X170815000Y-103565000D02*
X169485000Y-103565000D01*
X169485000Y-103565000D02*
X169485000Y-102235000D01*
X177225000Y-119440000D02*
X177225000Y-114240000D01*
X172085000Y-119440000D02*
X177225000Y-119440000D01*
X169485000Y-114240000D02*
X177225000Y-114240000D01*
X172085000Y-119440000D02*
X172085000Y-116840000D01*
X172085000Y-116840000D02*
X169485000Y-116840000D01*
X169485000Y-116840000D02*
X169485000Y-114240000D01*
X170815000Y-119440000D02*
X169485000Y-119440000D01*
X169485000Y-119440000D02*
X169485000Y-118110000D01*
X177225000Y-135315000D02*
X177225000Y-130115000D01*
X172085000Y-135315000D02*
X177225000Y-135315000D01*
X169485000Y-130115000D02*
X177225000Y-130115000D01*
X172085000Y-135315000D02*
X172085000Y-132715000D01*
X172085000Y-132715000D02*
X169485000Y-132715000D01*
X169485000Y-132715000D02*
X169485000Y-130115000D01*
X170815000Y-135315000D02*
X169485000Y-135315000D01*
X169485000Y-135315000D02*
X169485000Y-133985000D01*
X193468000Y-86848000D02*
X187498000Y-86848000D01*
X187498000Y-86848000D02*
X187498000Y-99468000D01*
X187498000Y-99468000D02*
X193468000Y-99468000D01*
X193468000Y-99468000D02*
X193468000Y-86848000D01*
X193458000Y-90158000D02*
X192708000Y-90158000D01*
X192708000Y-90158000D02*
X192708000Y-96158000D01*
X192708000Y-96158000D02*
X193458000Y-96158000D01*
X193458000Y-96158000D02*
X193458000Y-90158000D01*
X193458000Y-86858000D02*
X192708000Y-86858000D01*
X192708000Y-86858000D02*
X192708000Y-88658000D01*
X192708000Y-88658000D02*
X193458000Y-88658000D01*
X193458000Y-88658000D02*
X193458000Y-86858000D01*
X193458000Y-97658000D02*
X192708000Y-97658000D01*
X192708000Y-97658000D02*
X192708000Y-99458000D01*
X192708000Y-99458000D02*
X193458000Y-99458000D01*
X193458000Y-99458000D02*
X193458000Y-97658000D01*
X191208000Y-86858000D02*
X191208000Y-87608000D01*
X191208000Y-87608000D02*
X188258000Y-87608000D01*
X188258000Y-87608000D02*
X188258000Y-93158000D01*
X191208000Y-99458000D02*
X191208000Y-98708000D01*
X191208000Y-98708000D02*
X188258000Y-98708000D01*
X188258000Y-98708000D02*
X188258000Y-93158000D01*
X193758000Y-87808000D02*
X193758000Y-86558000D01*
X193758000Y-86558000D02*
X192508000Y-86558000D01*
X193468000Y-115296000D02*
X187498000Y-115296000D01*
X187498000Y-115296000D02*
X187498000Y-127916000D01*
X187498000Y-127916000D02*
X193468000Y-127916000D01*
X193468000Y-127916000D02*
X193468000Y-115296000D01*
X193458000Y-118606000D02*
X192708000Y-118606000D01*
X192708000Y-118606000D02*
X192708000Y-124606000D01*
X192708000Y-124606000D02*
X193458000Y-124606000D01*
X193458000Y-124606000D02*
X193458000Y-118606000D01*
X193458000Y-115306000D02*
X192708000Y-115306000D01*
X192708000Y-115306000D02*
X192708000Y-117106000D01*
X192708000Y-117106000D02*
X193458000Y-117106000D01*
X193458000Y-117106000D02*
X193458000Y-115306000D01*
X193458000Y-126106000D02*
X192708000Y-126106000D01*
X192708000Y-126106000D02*
X192708000Y-127906000D01*
X192708000Y-127906000D02*
X193458000Y-127906000D01*
X193458000Y-127906000D02*
X193458000Y-126106000D01*
X191208000Y-115306000D02*
X191208000Y-116056000D01*
X191208000Y-116056000D02*
X188258000Y-116056000D01*
X188258000Y-116056000D02*
X188258000Y-121606000D01*
X191208000Y-127906000D02*
X191208000Y-127156000D01*
X191208000Y-127156000D02*
X188258000Y-127156000D01*
X188258000Y-127156000D02*
X188258000Y-121606000D01*
X193758000Y-116256000D02*
X193758000Y-115006000D01*
X193758000Y-115006000D02*
X192508000Y-115006000D01*
X136786000Y-134800000D02*
X136786000Y-136300000D01*
X136786000Y-136300000D02*
X137736000Y-136300000D01*
X137736000Y-136300000D02*
X137736000Y-141425000D01*
X147186000Y-134800000D02*
X147186000Y-136300000D01*
X147186000Y-136300000D02*
X146236000Y-136300000D01*
X146236000Y-136300000D02*
X146236000Y-137400000D01*
X171064000Y-140862000D02*
X171064000Y-142122000D01*
X171064000Y-147682000D02*
X171064000Y-146422000D01*
X174824000Y-140862000D02*
X171064000Y-140862000D01*
X177074000Y-147682000D02*
X171064000Y-147682000D01*
X137742000Y-87654000D02*
X137742000Y-85574000D01*
X141912000Y-83894000D02*
X142402000Y-84384000D01*
X143182000Y-87654000D02*
X143182000Y-85574000D01*
X139012000Y-83894000D02*
X138522000Y-84384000D01*
X139012000Y-83894000D02*
X141912000Y-83894000D01*
X139012000Y-89334000D02*
X138522000Y-88844000D01*
X139012000Y-89334000D02*
X141912000Y-89334000D01*
X141912000Y-89334000D02*
X142402000Y-88844000D01*
X137742000Y-81558000D02*
X137742000Y-79478000D01*
X141912000Y-77798000D02*
X142402000Y-78288000D01*
X143182000Y-81558000D02*
X143182000Y-79478000D01*
X139012000Y-77798000D02*
X138522000Y-78288000D01*
X139012000Y-77798000D02*
X141912000Y-77798000D01*
X139012000Y-83238000D02*
X138522000Y-82748000D01*
X139012000Y-83238000D02*
X141912000Y-83238000D01*
X141912000Y-83238000D02*
X142402000Y-82748000D01*
X180803733Y-85215000D02*
X181146267Y-85215000D01*
X180803733Y-86235000D02*
X181146267Y-86235000D01*
X155403733Y-86612000D02*
X155746267Y-86612000D01*
X155403733Y-87632000D02*
X155746267Y-87632000D01*
X180803733Y-83310000D02*
X181146267Y-83310000D01*
X180803733Y-84330000D02*
X181146267Y-84330000D01*
X180803733Y-101090000D02*
X181146267Y-101090000D01*
X180803733Y-102110000D02*
X181146267Y-102110000D01*
X180803733Y-97280000D02*
X181146267Y-97280000D01*
X180803733Y-98300000D02*
X181146267Y-98300000D01*
X141132779Y-115064000D02*
X140807221Y-115064000D01*
X141132779Y-114044000D02*
X140807221Y-114044000D01*
X146560000Y-87467221D02*
X146560000Y-87792779D01*
X145540000Y-87467221D02*
X145540000Y-87792779D01*
X141132779Y-113286000D02*
X140807221Y-113286000D01*
X141132779Y-112266000D02*
X140807221Y-112266000D01*
X140807221Y-110488000D02*
X141132779Y-110488000D01*
X140807221Y-111508000D02*
X141132779Y-111508000D01*
X180803733Y-132840000D02*
X181146267Y-132840000D01*
X180803733Y-133860000D02*
X181146267Y-133860000D01*
X180803733Y-130935000D02*
X181146267Y-130935000D01*
X180803733Y-131955000D02*
X181146267Y-131955000D01*
D11*
X141840000Y-109838000D02*
X142740000Y-109838000D01*
X161340000Y-91838000D02*
X160440000Y-91838000D01*
X161340000Y-109838000D02*
X160440000Y-109838000D01*
X141840000Y-109838000D02*
X141840000Y-91838000D01*
X141840000Y-91838000D02*
X142740000Y-91838000D01*
X161340000Y-91838000D02*
X161340000Y-94538000D01*
X161340000Y-109838000D02*
X161340000Y-107138000D01*
X141840000Y-109838000D02*
X141840000Y-91838000D01*
X135840000Y-109838000D02*
X135840000Y-91838000D01*
D12*
X162256000Y-130300000D02*
X162256000Y-133300000D01*
X162256000Y-133300000D02*
X149656000Y-133300000D01*
X149656000Y-133300000D02*
X149656000Y-130300000D01*
X149656000Y-123700000D02*
X149656000Y-120700000D01*
X149656000Y-120700000D02*
X162256000Y-120700000D01*
X162256000Y-120700000D02*
X162256000Y-123700000D01*
X193468000Y-101072000D02*
X187498000Y-101072000D01*
X187498000Y-101072000D02*
X187498000Y-113692000D01*
X187498000Y-113692000D02*
X193468000Y-113692000D01*
X193468000Y-113692000D02*
X193468000Y-101072000D01*
X193458000Y-104382000D02*
X192708000Y-104382000D01*
X192708000Y-104382000D02*
X192708000Y-110382000D01*
X192708000Y-110382000D02*
X193458000Y-110382000D01*
X193458000Y-110382000D02*
X193458000Y-104382000D01*
X193458000Y-101082000D02*
X192708000Y-101082000D01*
X192708000Y-101082000D02*
X192708000Y-102882000D01*
X192708000Y-102882000D02*
X193458000Y-102882000D01*
X193458000Y-102882000D02*
X193458000Y-101082000D01*
X193458000Y-111882000D02*
X192708000Y-111882000D01*
X192708000Y-111882000D02*
X192708000Y-113682000D01*
X192708000Y-113682000D02*
X193458000Y-113682000D01*
X193458000Y-113682000D02*
X193458000Y-111882000D01*
X191208000Y-101082000D02*
X191208000Y-101832000D01*
X191208000Y-101832000D02*
X188258000Y-101832000D01*
X188258000Y-101832000D02*
X188258000Y-107382000D01*
X191208000Y-113682000D02*
X191208000Y-112932000D01*
X191208000Y-112932000D02*
X188258000Y-112932000D01*
X188258000Y-112932000D02*
X188258000Y-107382000D01*
X193758000Y-102032000D02*
X193758000Y-100782000D01*
X193758000Y-100782000D02*
X192508000Y-100782000D01*
X193468000Y-77958000D02*
X187498000Y-77958000D01*
X187498000Y-77958000D02*
X187498000Y-85578000D01*
X187498000Y-85578000D02*
X193468000Y-85578000D01*
X193468000Y-85578000D02*
X193468000Y-77958000D01*
X193458000Y-81268000D02*
X192708000Y-81268000D01*
X192708000Y-81268000D02*
X192708000Y-82268000D01*
X192708000Y-82268000D02*
X193458000Y-82268000D01*
X193458000Y-82268000D02*
X193458000Y-81268000D01*
X193458000Y-77968000D02*
X192708000Y-77968000D01*
X192708000Y-77968000D02*
X192708000Y-79768000D01*
X192708000Y-79768000D02*
X193458000Y-79768000D01*
X193458000Y-79768000D02*
X193458000Y-77968000D01*
X193458000Y-83768000D02*
X192708000Y-83768000D01*
X192708000Y-83768000D02*
X192708000Y-85568000D01*
X192708000Y-85568000D02*
X193458000Y-85568000D01*
X193458000Y-85568000D02*
X193458000Y-83768000D01*
X191208000Y-77968000D02*
X191208000Y-78718000D01*
X191208000Y-78718000D02*
X188258000Y-78718000D01*
X188258000Y-78718000D02*
X188258000Y-81768000D01*
X191208000Y-85568000D02*
X191208000Y-84818000D01*
X191208000Y-84818000D02*
X188258000Y-84818000D01*
X188258000Y-84818000D02*
X188258000Y-81768000D01*
X193758000Y-78918000D02*
X193758000Y-77668000D01*
X193758000Y-77668000D02*
X192508000Y-77668000D01*
X175875000Y-70565000D02*
X175875000Y-76535000D01*
X175875000Y-76535000D02*
X185995000Y-76535000D01*
X185995000Y-76535000D02*
X185995000Y-70565000D01*
X185995000Y-70565000D02*
X175875000Y-70565000D01*
X179185000Y-70575000D02*
X179185000Y-71325000D01*
X179185000Y-71325000D02*
X182685000Y-71325000D01*
X182685000Y-71325000D02*
X182685000Y-70575000D01*
X182685000Y-70575000D02*
X179185000Y-70575000D01*
X175885000Y-70575000D02*
X175885000Y-71325000D01*
X175885000Y-71325000D02*
X177685000Y-71325000D01*
X177685000Y-71325000D02*
X177685000Y-70575000D01*
X177685000Y-70575000D02*
X175885000Y-70575000D01*
X184185000Y-70575000D02*
X184185000Y-71325000D01*
X184185000Y-71325000D02*
X185985000Y-71325000D01*
X185985000Y-71325000D02*
X185985000Y-70575000D01*
X185985000Y-70575000D02*
X184185000Y-70575000D01*
X175885000Y-72825000D02*
X176635000Y-72825000D01*
X176635000Y-72825000D02*
X176635000Y-75775000D01*
X176635000Y-75775000D02*
X180935000Y-75775000D01*
X185985000Y-72825000D02*
X185235000Y-72825000D01*
X185235000Y-72825000D02*
X185235000Y-75775000D01*
X185235000Y-75775000D02*
X180935000Y-75775000D01*
X176835000Y-70275000D02*
X175585000Y-70275000D01*
X175585000Y-70275000D02*
X175585000Y-71525000D01*
X162286000Y-70565000D02*
X162286000Y-76535000D01*
X162286000Y-76535000D02*
X174906000Y-76535000D01*
X174906000Y-76535000D02*
X174906000Y-70565000D01*
X174906000Y-70565000D02*
X162286000Y-70565000D01*
X165596000Y-70575000D02*
X165596000Y-71325000D01*
X165596000Y-71325000D02*
X171596000Y-71325000D01*
X171596000Y-71325000D02*
X171596000Y-70575000D01*
X171596000Y-70575000D02*
X165596000Y-70575000D01*
X162296000Y-70575000D02*
X162296000Y-71325000D01*
X162296000Y-71325000D02*
X164096000Y-71325000D01*
X164096000Y-71325000D02*
X164096000Y-70575000D01*
X164096000Y-70575000D02*
X162296000Y-70575000D01*
X173096000Y-70575000D02*
X173096000Y-71325000D01*
X173096000Y-71325000D02*
X174896000Y-71325000D01*
X174896000Y-71325000D02*
X174896000Y-70575000D01*
X174896000Y-70575000D02*
X173096000Y-70575000D01*
X162296000Y-72825000D02*
X163046000Y-72825000D01*
X163046000Y-72825000D02*
X163046000Y-75775000D01*
X163046000Y-75775000D02*
X168596000Y-75775000D01*
X174896000Y-72825000D02*
X174146000Y-72825000D01*
X174146000Y-72825000D02*
X174146000Y-75775000D01*
X174146000Y-75775000D02*
X168596000Y-75775000D01*
X163246000Y-70275000D02*
X161996000Y-70275000D01*
X161996000Y-70275000D02*
X161996000Y-71525000D01*
X193468000Y-129520000D02*
X187498000Y-129520000D01*
X187498000Y-129520000D02*
X187498000Y-142140000D01*
X187498000Y-142140000D02*
X193468000Y-142140000D01*
X193468000Y-142140000D02*
X193468000Y-129520000D01*
X193458000Y-132830000D02*
X192708000Y-132830000D01*
X192708000Y-132830000D02*
X192708000Y-138830000D01*
X192708000Y-138830000D02*
X193458000Y-138830000D01*
X193458000Y-138830000D02*
X193458000Y-132830000D01*
X193458000Y-129530000D02*
X192708000Y-129530000D01*
X192708000Y-129530000D02*
X192708000Y-131330000D01*
X192708000Y-131330000D02*
X193458000Y-131330000D01*
X193458000Y-131330000D02*
X193458000Y-129530000D01*
X193458000Y-140330000D02*
X192708000Y-140330000D01*
X192708000Y-140330000D02*
X192708000Y-142130000D01*
X192708000Y-142130000D02*
X193458000Y-142130000D01*
X193458000Y-142130000D02*
X193458000Y-140330000D01*
X191208000Y-129530000D02*
X191208000Y-130280000D01*
X191208000Y-130280000D02*
X188258000Y-130280000D01*
X188258000Y-130280000D02*
X188258000Y-135830000D01*
X191208000Y-142130000D02*
X191208000Y-141380000D01*
X191208000Y-141380000D02*
X188258000Y-141380000D01*
X188258000Y-141380000D02*
X188258000Y-135830000D01*
X193758000Y-130480000D02*
X193758000Y-129230000D01*
X193758000Y-129230000D02*
X192508000Y-129230000D01*
X148904000Y-135044000D02*
X147854000Y-135044000D01*
X147854000Y-136094000D02*
X147854000Y-135044000D01*
X157254000Y-141144000D02*
X157254000Y-149944000D01*
X157254000Y-149944000D02*
X148054000Y-149944000D01*
X154554000Y-135244000D02*
X157254000Y-135244000D01*
X157254000Y-135244000D02*
X157254000Y-137144000D01*
X148054000Y-149944000D02*
X148054000Y-135244000D01*
X148054000Y-135244000D02*
X150654000Y-135244000D01*
X140310000Y-123952000D02*
X140310000Y-123572000D01*
X136260000Y-123952000D02*
X136000000Y-123952000D01*
X140310000Y-123952000D02*
X138540000Y-123952000D01*
X140310000Y-116332000D02*
X140310000Y-116712000D01*
X138540000Y-116332000D02*
X140310000Y-116332000D01*
X136000000Y-116332000D02*
X136260000Y-116332000D01*
X158278000Y-134382000D02*
X158278000Y-136382000D01*
X158278000Y-136382000D02*
X162178000Y-136382000D01*
X158278000Y-134382000D02*
X162178000Y-134382000D01*
X138468000Y-113819000D02*
X136008000Y-113819000D01*
X136008000Y-113819000D02*
X136008000Y-115289000D01*
X136008000Y-115289000D02*
X138468000Y-115289000D01*
X136868000Y-113511000D02*
X139328000Y-113511000D01*
X139328000Y-113511000D02*
X139328000Y-112041000D01*
X139328000Y-112041000D02*
X136868000Y-112041000D01*
X136868000Y-111733000D02*
X139328000Y-111733000D01*
X139328000Y-111733000D02*
X139328000Y-110263000D01*
X139328000Y-110263000D02*
X136868000Y-110263000D01*
X158388000Y-148952000D02*
X160738000Y-148952000D01*
X165208000Y-148952000D02*
X162858000Y-148952000D01*
X165208000Y-143196437D02*
X165208000Y-148952000D01*
X158388000Y-143196437D02*
X158388000Y-148952000D01*
X159452437Y-142132000D02*
X160738000Y-142132000D01*
X164143563Y-142132000D02*
X162858000Y-142132000D01*
X164143563Y-142132000D02*
X165208000Y-143196437D01*
X159452437Y-142132000D02*
X158388000Y-143196437D01*
X167388000Y-144617221D02*
X167388000Y-144942779D01*
X166368000Y-144617221D02*
X166368000Y-144942779D01*
X145252221Y-144524000D02*
X145577779Y-144524000D01*
X145252221Y-145544000D02*
X145577779Y-145544000D01*
X145252221Y-142619000D02*
X145577779Y-142619000D01*
X145252221Y-143639000D02*
X145577779Y-143639000D01*
X155403733Y-88517000D02*
X155746267Y-88517000D01*
X155403733Y-89537000D02*
X155746267Y-89537000D01*
X149100000Y-112867221D02*
X149100000Y-113192779D01*
X148080000Y-112867221D02*
X148080000Y-113192779D01*
X147195000Y-112867221D02*
X147195000Y-113192779D01*
X146175000Y-112867221D02*
X146175000Y-113192779D01*
X145290000Y-112867221D02*
X145290000Y-113192779D01*
X144270000Y-112867221D02*
X144270000Y-113192779D01*
X160433936Y-117454000D02*
X161638064Y-117454000D01*
X160433936Y-119274000D02*
X161638064Y-119274000D01*
X179415221Y-143381000D02*
X179740779Y-143381000D01*
X179415221Y-144401000D02*
X179740779Y-144401000D01*
X179415221Y-141476000D02*
X179740779Y-141476000D01*
X179415221Y-142496000D02*
X179740779Y-142496000D01*
X186690000Y-92710000D02*
X166370000Y-92710000D01*
X166370000Y-92710000D02*
X166370000Y-77470000D01*
X166370000Y-77470000D02*
X186690000Y-77470000D01*
X186690000Y-77470000D02*
X186690000Y-92710000D01*
X186690000Y-108585000D02*
X166370000Y-108585000D01*
X166370000Y-108585000D02*
X166370000Y-93345000D01*
X166370000Y-93345000D02*
X186690000Y-93345000D01*
X186690000Y-93345000D02*
X186690000Y-108585000D01*
X186690000Y-124460000D02*
X166370000Y-124460000D01*
X166370000Y-124460000D02*
X166370000Y-109220000D01*
X166370000Y-109220000D02*
X186690000Y-109220000D01*
X186690000Y-109220000D02*
X186690000Y-124460000D01*
X186690000Y-140335000D02*
X166370000Y-140335000D01*
X166370000Y-140335000D02*
X166370000Y-125095000D01*
X166370000Y-125095000D02*
X186690000Y-125095000D01*
X186690000Y-125095000D02*
X186690000Y-140335000D01*
X180803733Y-117985000D02*
X181146267Y-117985000D01*
X180803733Y-116965000D02*
X181146267Y-116965000D01*
X180803733Y-81405000D02*
X181146267Y-81405000D01*
X180803733Y-82425000D02*
X181146267Y-82425000D01*
X180803733Y-115060000D02*
X181146267Y-115060000D01*
X180803733Y-116080000D02*
X181146267Y-116080000D01*
X180803733Y-114175000D02*
X181146267Y-114175000D01*
X180803733Y-113155000D02*
X181146267Y-113155000D01*
X180803733Y-129030000D02*
X181146267Y-129030000D01*
X180803733Y-130050000D02*
X181146267Y-130050000D01*
X180803733Y-99185000D02*
X181146267Y-99185000D01*
X180803733Y-100205000D02*
X181146267Y-100205000D01*
D11*
X172672476Y-80732380D02*
X172672476Y-81446666D01*
X172624857Y-81589523D01*
X172529619Y-81684761D01*
X172386761Y-81732380D01*
X172291523Y-81732380D01*
X173672476Y-81732380D02*
X173101047Y-81732380D01*
X173386761Y-81732380D02*
X173386761Y-80732380D01*
X173291523Y-80875238D01*
X173196285Y-80970476D01*
X173101047Y-81018095D01*
X174053428Y-80827619D02*
X174101047Y-80780000D01*
X174196285Y-80732380D01*
X174434380Y-80732380D01*
X174529619Y-80780000D01*
X174577238Y-80827619D01*
X174624857Y-80922857D01*
X174624857Y-81018095D01*
X174577238Y-81160952D01*
X174005809Y-81732380D01*
X174624857Y-81732380D01*
X172672476Y-96988380D02*
X172672476Y-97702666D01*
X172624857Y-97845523D01*
X172529619Y-97940761D01*
X172386761Y-97988380D01*
X172291523Y-97988380D01*
X173672476Y-97988380D02*
X173101047Y-97988380D01*
X173386761Y-97988380D02*
X173386761Y-96988380D01*
X173291523Y-97131238D01*
X173196285Y-97226476D01*
X173101047Y-97274095D01*
X174291523Y-96988380D02*
X174386761Y-96988380D01*
X174482000Y-97036000D01*
X174529619Y-97083619D01*
X174577238Y-97178857D01*
X174624857Y-97369333D01*
X174624857Y-97607428D01*
X174577238Y-97797904D01*
X174529619Y-97893142D01*
X174482000Y-97940761D01*
X174386761Y-97988380D01*
X174291523Y-97988380D01*
X174196285Y-97940761D01*
X174148666Y-97893142D01*
X174101047Y-97797904D01*
X174053428Y-97607428D01*
X174053428Y-97369333D01*
X174101047Y-97178857D01*
X174148666Y-97083619D01*
X174196285Y-97036000D01*
X174291523Y-96988380D01*
X172894666Y-112990380D02*
X172894666Y-113704666D01*
X172847047Y-113847523D01*
X172751809Y-113942761D01*
X172608952Y-113990380D01*
X172513714Y-113990380D01*
X173847047Y-112990380D02*
X173370857Y-112990380D01*
X173323238Y-113466571D01*
X173370857Y-113418952D01*
X173466095Y-113371333D01*
X173704190Y-113371333D01*
X173799428Y-113418952D01*
X173847047Y-113466571D01*
X173894666Y-113561809D01*
X173894666Y-113799904D01*
X173847047Y-113895142D01*
X173799428Y-113942761D01*
X173704190Y-113990380D01*
X173466095Y-113990380D01*
X173370857Y-113942761D01*
X173323238Y-113895142D01*
X172894666Y-128738380D02*
X172894666Y-129452666D01*
X172847047Y-129595523D01*
X172751809Y-129690761D01*
X172608952Y-129738380D01*
X172513714Y-129738380D01*
X173323238Y-128833619D02*
X173370857Y-128786000D01*
X173466095Y-128738380D01*
X173704190Y-128738380D01*
X173799428Y-128786000D01*
X173847047Y-128833619D01*
X173894666Y-128928857D01*
X173894666Y-129024095D01*
X173847047Y-129166952D01*
X173275619Y-129738380D01*
X173894666Y-129738380D01*
X136652095Y-141946380D02*
X136652095Y-142755904D01*
X136699714Y-142851142D01*
X136747333Y-142898761D01*
X136842571Y-142946380D01*
X137033047Y-142946380D01*
X137128285Y-142898761D01*
X137175904Y-142851142D01*
X137223523Y-142755904D01*
X137223523Y-141946380D01*
X138175904Y-141946380D02*
X137699714Y-141946380D01*
X137652095Y-142422571D01*
X137699714Y-142374952D01*
X137794952Y-142327333D01*
X138033047Y-142327333D01*
X138128285Y-142374952D01*
X138175904Y-142422571D01*
X138223523Y-142517809D01*
X138223523Y-142755904D01*
X138175904Y-142851142D01*
X138128285Y-142898761D01*
X138033047Y-142946380D01*
X137794952Y-142946380D01*
X137699714Y-142898761D01*
X137652095Y-142851142D01*
X178054095Y-144994380D02*
X178054095Y-145803904D01*
X178101714Y-145899142D01*
X178149333Y-145946761D01*
X178244571Y-145994380D01*
X178435047Y-145994380D01*
X178530285Y-145946761D01*
X178577904Y-145899142D01*
X178625523Y-145803904D01*
X178625523Y-144994380D01*
X179006476Y-144994380D02*
X179625523Y-144994380D01*
X179292190Y-145375333D01*
X179435047Y-145375333D01*
X179530285Y-145422952D01*
X179577904Y-145470571D01*
X179625523Y-145565809D01*
X179625523Y-145803904D01*
X179577904Y-145899142D01*
X179530285Y-145946761D01*
X179435047Y-145994380D01*
X179149333Y-145994380D01*
X179054095Y-145946761D01*
X179006476Y-145899142D01*
X136588666Y-90828761D02*
X136731523Y-90876380D01*
X136969619Y-90876380D01*
X137064857Y-90828761D01*
X137112476Y-90781142D01*
X137160095Y-90685904D01*
X137160095Y-90590666D01*
X137112476Y-90495428D01*
X137064857Y-90447809D01*
X136969619Y-90400190D01*
X136779142Y-90352571D01*
X136683904Y-90304952D01*
X136636285Y-90257333D01*
X136588666Y-90162095D01*
X136588666Y-90066857D01*
X136636285Y-89971619D01*
X136683904Y-89924000D01*
X136779142Y-89876380D01*
X137017238Y-89876380D01*
X137160095Y-89924000D01*
X137493428Y-89876380D02*
X137731523Y-90876380D01*
X137922000Y-90162095D01*
X138112476Y-90876380D01*
X138350571Y-89876380D01*
X138683904Y-89971619D02*
X138731523Y-89924000D01*
X138826761Y-89876380D01*
X139064857Y-89876380D01*
X139160095Y-89924000D01*
X139207714Y-89971619D01*
X139255333Y-90066857D01*
X139255333Y-90162095D01*
X139207714Y-90304952D01*
X138636285Y-90876380D01*
X139255333Y-90876380D01*
X142430666Y-77366761D02*
X142573523Y-77414380D01*
X142811619Y-77414380D01*
X142906857Y-77366761D01*
X142954476Y-77319142D01*
X143002095Y-77223904D01*
X143002095Y-77128666D01*
X142954476Y-77033428D01*
X142906857Y-76985809D01*
X142811619Y-76938190D01*
X142621142Y-76890571D01*
X142525904Y-76842952D01*
X142478285Y-76795333D01*
X142430666Y-76700095D01*
X142430666Y-76604857D01*
X142478285Y-76509619D01*
X142525904Y-76462000D01*
X142621142Y-76414380D01*
X142859238Y-76414380D01*
X143002095Y-76462000D01*
X143335428Y-76414380D02*
X143573523Y-77414380D01*
X143764000Y-76700095D01*
X143954476Y-77414380D01*
X144192571Y-76414380D01*
X145097333Y-77414380D02*
X144525904Y-77414380D01*
X144811619Y-77414380D02*
X144811619Y-76414380D01*
X144716380Y-76557238D01*
X144621142Y-76652476D01*
X144525904Y-76700095D01*
X183507142Y-86304380D02*
X183173809Y-85828190D01*
X182935714Y-86304380D02*
X182935714Y-85304380D01*
X183316666Y-85304380D01*
X183411904Y-85352000D01*
X183459523Y-85399619D01*
X183507142Y-85494857D01*
X183507142Y-85637714D01*
X183459523Y-85732952D01*
X183411904Y-85780571D01*
X183316666Y-85828190D01*
X182935714Y-85828190D01*
X183888095Y-85399619D02*
X183935714Y-85352000D01*
X184030952Y-85304380D01*
X184269047Y-85304380D01*
X184364285Y-85352000D01*
X184411904Y-85399619D01*
X184459523Y-85494857D01*
X184459523Y-85590095D01*
X184411904Y-85732952D01*
X183840476Y-86304380D01*
X184459523Y-86304380D01*
X185411904Y-86304380D02*
X184840476Y-86304380D01*
X185126190Y-86304380D02*
X185126190Y-85304380D01*
X185030952Y-85447238D01*
X184935714Y-85542476D01*
X184840476Y-85590095D01*
X158107142Y-87574380D02*
X157773809Y-87098190D01*
X157535714Y-87574380D02*
X157535714Y-86574380D01*
X157916666Y-86574380D01*
X158011904Y-86622000D01*
X158059523Y-86669619D01*
X158107142Y-86764857D01*
X158107142Y-86907714D01*
X158059523Y-87002952D01*
X158011904Y-87050571D01*
X157916666Y-87098190D01*
X157535714Y-87098190D01*
X158488095Y-86669619D02*
X158535714Y-86622000D01*
X158630952Y-86574380D01*
X158869047Y-86574380D01*
X158964285Y-86622000D01*
X159011904Y-86669619D01*
X159059523Y-86764857D01*
X159059523Y-86860095D01*
X159011904Y-87002952D01*
X158440476Y-87574380D01*
X159059523Y-87574380D01*
X159678571Y-86574380D02*
X159773809Y-86574380D01*
X159869047Y-86622000D01*
X159916666Y-86669619D01*
X159964285Y-86764857D01*
X160011904Y-86955333D01*
X160011904Y-87193428D01*
X159964285Y-87383904D01*
X159916666Y-87479142D01*
X159869047Y-87526761D01*
X159773809Y-87574380D01*
X159678571Y-87574380D01*
X159583333Y-87526761D01*
X159535714Y-87479142D01*
X159488095Y-87383904D01*
X159440476Y-87193428D01*
X159440476Y-86955333D01*
X159488095Y-86764857D01*
X159535714Y-86669619D01*
X159583333Y-86622000D01*
X159678571Y-86574380D01*
X183507142Y-84272380D02*
X183173809Y-83796190D01*
X182935714Y-84272380D02*
X182935714Y-83272380D01*
X183316666Y-83272380D01*
X183411904Y-83320000D01*
X183459523Y-83367619D01*
X183507142Y-83462857D01*
X183507142Y-83605714D01*
X183459523Y-83700952D01*
X183411904Y-83748571D01*
X183316666Y-83796190D01*
X182935714Y-83796190D01*
X184459523Y-84272380D02*
X183888095Y-84272380D01*
X184173809Y-84272380D02*
X184173809Y-83272380D01*
X184078571Y-83415238D01*
X183983333Y-83510476D01*
X183888095Y-83558095D01*
X184935714Y-84272380D02*
X185126190Y-84272380D01*
X185221428Y-84224761D01*
X185269047Y-84177142D01*
X185364285Y-84034285D01*
X185411904Y-83843809D01*
X185411904Y-83462857D01*
X185364285Y-83367619D01*
X185316666Y-83320000D01*
X185221428Y-83272380D01*
X185030952Y-83272380D01*
X184935714Y-83320000D01*
X184888095Y-83367619D01*
X184840476Y-83462857D01*
X184840476Y-83700952D01*
X184888095Y-83796190D01*
X184935714Y-83843809D01*
X185030952Y-83891428D01*
X185221428Y-83891428D01*
X185316666Y-83843809D01*
X185364285Y-83796190D01*
X185411904Y-83700952D01*
X183507142Y-102052380D02*
X183173809Y-101576190D01*
X182935714Y-102052380D02*
X182935714Y-101052380D01*
X183316666Y-101052380D01*
X183411904Y-101100000D01*
X183459523Y-101147619D01*
X183507142Y-101242857D01*
X183507142Y-101385714D01*
X183459523Y-101480952D01*
X183411904Y-101528571D01*
X183316666Y-101576190D01*
X182935714Y-101576190D01*
X184459523Y-102052380D02*
X183888095Y-102052380D01*
X184173809Y-102052380D02*
X184173809Y-101052380D01*
X184078571Y-101195238D01*
X183983333Y-101290476D01*
X183888095Y-101338095D01*
X184792857Y-101052380D02*
X185459523Y-101052380D01*
X185030952Y-102052380D01*
X183507142Y-98242380D02*
X183173809Y-97766190D01*
X182935714Y-98242380D02*
X182935714Y-97242380D01*
X183316666Y-97242380D01*
X183411904Y-97290000D01*
X183459523Y-97337619D01*
X183507142Y-97432857D01*
X183507142Y-97575714D01*
X183459523Y-97670952D01*
X183411904Y-97718571D01*
X183316666Y-97766190D01*
X182935714Y-97766190D01*
X184459523Y-98242380D02*
X183888095Y-98242380D01*
X184173809Y-98242380D02*
X184173809Y-97242380D01*
X184078571Y-97385238D01*
X183983333Y-97480476D01*
X183888095Y-97528095D01*
X185364285Y-97242380D02*
X184888095Y-97242380D01*
X184840476Y-97718571D01*
X184888095Y-97670952D01*
X184983333Y-97623333D01*
X185221428Y-97623333D01*
X185316666Y-97670952D01*
X185364285Y-97718571D01*
X185411904Y-97813809D01*
X185411904Y-98051904D01*
X185364285Y-98147142D01*
X185316666Y-98194761D01*
X185221428Y-98242380D01*
X184983333Y-98242380D01*
X184888095Y-98194761D01*
X184840476Y-98147142D01*
X148026380Y-88272857D02*
X147550190Y-88606190D01*
X148026380Y-88844285D02*
X147026380Y-88844285D01*
X147026380Y-88463333D01*
X147074000Y-88368095D01*
X147121619Y-88320476D01*
X147216857Y-88272857D01*
X147359714Y-88272857D01*
X147454952Y-88320476D01*
X147502571Y-88368095D01*
X147550190Y-88463333D01*
X147550190Y-88844285D01*
X148026380Y-87320476D02*
X148026380Y-87891904D01*
X148026380Y-87606190D02*
X147026380Y-87606190D01*
X147169238Y-87701428D01*
X147264476Y-87796666D01*
X147312095Y-87891904D01*
X148026380Y-86368095D02*
X148026380Y-86939523D01*
X148026380Y-86653809D02*
X147026380Y-86653809D01*
X147169238Y-86749047D01*
X147264476Y-86844285D01*
X147312095Y-86939523D01*
X183475333Y-133802380D02*
X183142000Y-133326190D01*
X182903904Y-133802380D02*
X182903904Y-132802380D01*
X183284857Y-132802380D01*
X183380095Y-132850000D01*
X183427714Y-132897619D01*
X183475333Y-132992857D01*
X183475333Y-133135714D01*
X183427714Y-133230952D01*
X183380095Y-133278571D01*
X183284857Y-133326190D01*
X182903904Y-133326190D01*
X183808666Y-132802380D02*
X184427714Y-132802380D01*
X184094380Y-133183333D01*
X184237238Y-133183333D01*
X184332476Y-133230952D01*
X184380095Y-133278571D01*
X184427714Y-133373809D01*
X184427714Y-133611904D01*
X184380095Y-133707142D01*
X184332476Y-133754761D01*
X184237238Y-133802380D01*
X183951523Y-133802380D01*
X183856285Y-133754761D01*
X183808666Y-133707142D01*
X183475333Y-132024380D02*
X183142000Y-131548190D01*
X182903904Y-132024380D02*
X182903904Y-131024380D01*
X183284857Y-131024380D01*
X183380095Y-131072000D01*
X183427714Y-131119619D01*
X183475333Y-131214857D01*
X183475333Y-131357714D01*
X183427714Y-131452952D01*
X183380095Y-131500571D01*
X183284857Y-131548190D01*
X182903904Y-131548190D01*
X183856285Y-131119619D02*
X183903904Y-131072000D01*
X183999142Y-131024380D01*
X184237238Y-131024380D01*
X184332476Y-131072000D01*
X184380095Y-131119619D01*
X184427714Y-131214857D01*
X184427714Y-131310095D01*
X184380095Y-131452952D01*
X183808666Y-132024380D01*
X184427714Y-132024380D01*
X141542380Y-101647523D02*
X140542380Y-101647523D01*
X141256666Y-101314190D01*
X140542380Y-100980857D01*
X141542380Y-100980857D01*
X141542380Y-99980857D02*
X141542380Y-100552285D01*
X141542380Y-100266571D02*
X140542380Y-100266571D01*
X140685238Y-100361809D01*
X140780476Y-100457047D01*
X140828095Y-100552285D01*
X155789333Y-120052380D02*
X155313142Y-120052380D01*
X155313142Y-119052380D01*
X156646476Y-120052380D02*
X156075047Y-120052380D01*
X156360761Y-120052380D02*
X156360761Y-119052380D01*
X156265523Y-119195238D01*
X156170285Y-119290476D01*
X156075047Y-119338095D01*
X155876666Y-133818380D02*
X155876666Y-134532666D01*
X155829047Y-134675523D01*
X155733809Y-134770761D01*
X155590952Y-134818380D01*
X155495714Y-134818380D01*
X156257619Y-133818380D02*
X156876666Y-133818380D01*
X156543333Y-134199333D01*
X156686190Y-134199333D01*
X156781428Y-134246952D01*
X156829047Y-134294571D01*
X156876666Y-134389809D01*
X156876666Y-134627904D01*
X156829047Y-134723142D01*
X156781428Y-134770761D01*
X156686190Y-134818380D01*
X156400476Y-134818380D01*
X156305238Y-134770761D01*
X156257619Y-134723142D01*
X141906666Y-123404380D02*
X141906666Y-124118666D01*
X141859047Y-124261523D01*
X141763809Y-124356761D01*
X141620952Y-124404380D01*
X141525714Y-124404380D01*
X142906666Y-124404380D02*
X142335238Y-124404380D01*
X142620952Y-124404380D02*
X142620952Y-123404380D01*
X142525714Y-123547238D01*
X142430476Y-123642476D01*
X142335238Y-123690095D01*
X160297904Y-137866380D02*
X160297904Y-136866380D01*
X160536000Y-136866380D01*
X160678857Y-136914000D01*
X160774095Y-137009238D01*
X160821714Y-137104476D01*
X160869333Y-137294952D01*
X160869333Y-137437809D01*
X160821714Y-137628285D01*
X160774095Y-137723523D01*
X160678857Y-137818761D01*
X160536000Y-137866380D01*
X160297904Y-137866380D01*
X161726476Y-137199714D02*
X161726476Y-137866380D01*
X161488380Y-136818761D02*
X161250285Y-137533047D01*
X161869333Y-137533047D01*
X163949142Y-141327142D02*
X163901523Y-141374761D01*
X163758666Y-141422380D01*
X163663428Y-141422380D01*
X163520571Y-141374761D01*
X163425333Y-141279523D01*
X163377714Y-141184285D01*
X163330095Y-140993809D01*
X163330095Y-140850952D01*
X163377714Y-140660476D01*
X163425333Y-140565238D01*
X163520571Y-140470000D01*
X163663428Y-140422380D01*
X163758666Y-140422380D01*
X163901523Y-140470000D01*
X163949142Y-140517619D01*
X164330095Y-140517619D02*
X164377714Y-140470000D01*
X164472952Y-140422380D01*
X164711047Y-140422380D01*
X164806285Y-140470000D01*
X164853904Y-140517619D01*
X164901523Y-140612857D01*
X164901523Y-140708095D01*
X164853904Y-140850952D01*
X164282476Y-141422380D01*
X164901523Y-141422380D01*
X165806285Y-140422380D02*
X165330095Y-140422380D01*
X165282476Y-140898571D01*
X165330095Y-140850952D01*
X165425333Y-140803333D01*
X165663428Y-140803333D01*
X165758666Y-140850952D01*
X165806285Y-140898571D01*
X165853904Y-140993809D01*
X165853904Y-141231904D01*
X165806285Y-141327142D01*
X165758666Y-141374761D01*
X165663428Y-141422380D01*
X165425333Y-141422380D01*
X165330095Y-141374761D01*
X165282476Y-141327142D01*
X166235142Y-142851142D02*
X166187523Y-142898761D01*
X166044666Y-142946380D01*
X165949428Y-142946380D01*
X165806571Y-142898761D01*
X165711333Y-142803523D01*
X165663714Y-142708285D01*
X165616095Y-142517809D01*
X165616095Y-142374952D01*
X165663714Y-142184476D01*
X165711333Y-142089238D01*
X165806571Y-141994000D01*
X165949428Y-141946380D01*
X166044666Y-141946380D01*
X166187523Y-141994000D01*
X166235142Y-142041619D01*
X166616095Y-142041619D02*
X166663714Y-141994000D01*
X166758952Y-141946380D01*
X166997047Y-141946380D01*
X167092285Y-141994000D01*
X167139904Y-142041619D01*
X167187523Y-142136857D01*
X167187523Y-142232095D01*
X167139904Y-142374952D01*
X166568476Y-142946380D01*
X167187523Y-142946380D01*
X168044666Y-142279714D02*
X168044666Y-142946380D01*
X167806571Y-141898761D02*
X167568476Y-142613047D01*
X168187523Y-142613047D01*
X144645142Y-148185142D02*
X144597523Y-148232761D01*
X144454666Y-148280380D01*
X144359428Y-148280380D01*
X144216571Y-148232761D01*
X144121333Y-148137523D01*
X144073714Y-148042285D01*
X144026095Y-147851809D01*
X144026095Y-147708952D01*
X144073714Y-147518476D01*
X144121333Y-147423238D01*
X144216571Y-147328000D01*
X144359428Y-147280380D01*
X144454666Y-147280380D01*
X144597523Y-147328000D01*
X144645142Y-147375619D01*
X145026095Y-147375619D02*
X145073714Y-147328000D01*
X145168952Y-147280380D01*
X145407047Y-147280380D01*
X145502285Y-147328000D01*
X145549904Y-147375619D01*
X145597523Y-147470857D01*
X145597523Y-147566095D01*
X145549904Y-147708952D01*
X144978476Y-148280380D01*
X145597523Y-148280380D01*
X145930857Y-147280380D02*
X146549904Y-147280380D01*
X146216571Y-147661333D01*
X146359428Y-147661333D01*
X146454666Y-147708952D01*
X146502285Y-147756571D01*
X146549904Y-147851809D01*
X146549904Y-148089904D01*
X146502285Y-148185142D01*
X146454666Y-148232761D01*
X146359428Y-148280380D01*
X146073714Y-148280380D01*
X145978476Y-148232761D01*
X145930857Y-148185142D01*
X144645142Y-146915142D02*
X144597523Y-146962761D01*
X144454666Y-147010380D01*
X144359428Y-147010380D01*
X144216571Y-146962761D01*
X144121333Y-146867523D01*
X144073714Y-146772285D01*
X144026095Y-146581809D01*
X144026095Y-146438952D01*
X144073714Y-146248476D01*
X144121333Y-146153238D01*
X144216571Y-146058000D01*
X144359428Y-146010380D01*
X144454666Y-146010380D01*
X144597523Y-146058000D01*
X144645142Y-146105619D01*
X145026095Y-146105619D02*
X145073714Y-146058000D01*
X145168952Y-146010380D01*
X145407047Y-146010380D01*
X145502285Y-146058000D01*
X145549904Y-146105619D01*
X145597523Y-146200857D01*
X145597523Y-146296095D01*
X145549904Y-146438952D01*
X144978476Y-147010380D01*
X145597523Y-147010380D01*
X145978476Y-146105619D02*
X146026095Y-146058000D01*
X146121333Y-146010380D01*
X146359428Y-146010380D01*
X146454666Y-146058000D01*
X146502285Y-146105619D01*
X146549904Y-146200857D01*
X146549904Y-146296095D01*
X146502285Y-146438952D01*
X145930857Y-147010380D01*
X146549904Y-147010380D01*
X158107142Y-89511142D02*
X158059523Y-89558761D01*
X157916666Y-89606380D01*
X157821428Y-89606380D01*
X157678571Y-89558761D01*
X157583333Y-89463523D01*
X157535714Y-89368285D01*
X157488095Y-89177809D01*
X157488095Y-89034952D01*
X157535714Y-88844476D01*
X157583333Y-88749238D01*
X157678571Y-88654000D01*
X157821428Y-88606380D01*
X157916666Y-88606380D01*
X158059523Y-88654000D01*
X158107142Y-88701619D01*
X159059523Y-89606380D02*
X158488095Y-89606380D01*
X158773809Y-89606380D02*
X158773809Y-88606380D01*
X158678571Y-88749238D01*
X158583333Y-88844476D01*
X158488095Y-88892095D01*
X159535714Y-89606380D02*
X159726190Y-89606380D01*
X159821428Y-89558761D01*
X159869047Y-89511142D01*
X159964285Y-89368285D01*
X160011904Y-89177809D01*
X160011904Y-88796857D01*
X159964285Y-88701619D01*
X159916666Y-88654000D01*
X159821428Y-88606380D01*
X159630952Y-88606380D01*
X159535714Y-88654000D01*
X159488095Y-88701619D01*
X159440476Y-88796857D01*
X159440476Y-89034952D01*
X159488095Y-89130190D01*
X159535714Y-89177809D01*
X159630952Y-89225428D01*
X159821428Y-89225428D01*
X159916666Y-89177809D01*
X159964285Y-89130190D01*
X160011904Y-89034952D01*
X160869333Y-116943142D02*
X160821714Y-116990761D01*
X160678857Y-117038380D01*
X160583619Y-117038380D01*
X160440761Y-116990761D01*
X160345523Y-116895523D01*
X160297904Y-116800285D01*
X160250285Y-116609809D01*
X160250285Y-116466952D01*
X160297904Y-116276476D01*
X160345523Y-116181238D01*
X160440761Y-116086000D01*
X160583619Y-116038380D01*
X160678857Y-116038380D01*
X160821714Y-116086000D01*
X160869333Y-116133619D01*
X161202666Y-116038380D02*
X161869333Y-116038380D01*
X161440761Y-117038380D01*
X181951333Y-144375142D02*
X181903714Y-144422761D01*
X181760857Y-144470380D01*
X181665619Y-144470380D01*
X181522761Y-144422761D01*
X181427523Y-144327523D01*
X181379904Y-144232285D01*
X181332285Y-144041809D01*
X181332285Y-143898952D01*
X181379904Y-143708476D01*
X181427523Y-143613238D01*
X181522761Y-143518000D01*
X181665619Y-143470380D01*
X181760857Y-143470380D01*
X181903714Y-143518000D01*
X181951333Y-143565619D01*
X182808476Y-143470380D02*
X182618000Y-143470380D01*
X182522761Y-143518000D01*
X182475142Y-143565619D01*
X182379904Y-143708476D01*
X182332285Y-143898952D01*
X182332285Y-144279904D01*
X182379904Y-144375142D01*
X182427523Y-144422761D01*
X182522761Y-144470380D01*
X182713238Y-144470380D01*
X182808476Y-144422761D01*
X182856095Y-144375142D01*
X182903714Y-144279904D01*
X182903714Y-144041809D01*
X182856095Y-143946571D01*
X182808476Y-143898952D01*
X182713238Y-143851333D01*
X182522761Y-143851333D01*
X182427523Y-143898952D01*
X182379904Y-143946571D01*
X182332285Y-144041809D01*
X181951333Y-142343142D02*
X181903714Y-142390761D01*
X181760857Y-142438380D01*
X181665619Y-142438380D01*
X181522761Y-142390761D01*
X181427523Y-142295523D01*
X181379904Y-142200285D01*
X181332285Y-142009809D01*
X181332285Y-141866952D01*
X181379904Y-141676476D01*
X181427523Y-141581238D01*
X181522761Y-141486000D01*
X181665619Y-141438380D01*
X181760857Y-141438380D01*
X181903714Y-141486000D01*
X181951333Y-141533619D01*
X182332285Y-141533619D02*
X182379904Y-141486000D01*
X182475142Y-141438380D01*
X182713238Y-141438380D01*
X182808476Y-141486000D01*
X182856095Y-141533619D01*
X182903714Y-141628857D01*
X182903714Y-141724095D01*
X182856095Y-141866952D01*
X182284666Y-142438380D01*
X182903714Y-142438380D01*
X176831714Y-89574666D02*
X177307904Y-89574666D01*
X176736476Y-89860380D02*
X177069809Y-88860380D01*
X177403142Y-89860380D01*
X178165047Y-89193714D02*
X178165047Y-89860380D01*
X177926952Y-88812761D02*
X177688857Y-89527047D01*
X178307904Y-89527047D01*
X176831714Y-105322666D02*
X177307904Y-105322666D01*
X176736476Y-105608380D02*
X177069809Y-104608380D01*
X177403142Y-105608380D01*
X177641238Y-104608380D02*
X178260285Y-104608380D01*
X177926952Y-104989333D01*
X178069809Y-104989333D01*
X178165047Y-105036952D01*
X178212666Y-105084571D01*
X178260285Y-105179809D01*
X178260285Y-105417904D01*
X178212666Y-105513142D01*
X178165047Y-105560761D01*
X178069809Y-105608380D01*
X177784095Y-105608380D01*
X177688857Y-105560761D01*
X177641238Y-105513142D01*
X176831714Y-121324666D02*
X177307904Y-121324666D01*
X176736476Y-121610380D02*
X177069809Y-120610380D01*
X177403142Y-121610380D01*
X177688857Y-120705619D02*
X177736476Y-120658000D01*
X177831714Y-120610380D01*
X178069809Y-120610380D01*
X178165047Y-120658000D01*
X178212666Y-120705619D01*
X178260285Y-120800857D01*
X178260285Y-120896095D01*
X178212666Y-121038952D01*
X177641238Y-121610380D01*
X178260285Y-121610380D01*
X176831714Y-137072666D02*
X177307904Y-137072666D01*
X176736476Y-137358380D02*
X177069809Y-136358380D01*
X177403142Y-137358380D01*
X178260285Y-137358380D02*
X177688857Y-137358380D01*
X177974571Y-137358380D02*
X177974571Y-136358380D01*
X177879333Y-136501238D01*
X177784095Y-136596476D01*
X177688857Y-136644095D01*
X183475333Y-118054380D02*
X183142000Y-117578190D01*
X182903904Y-118054380D02*
X182903904Y-117054380D01*
X183284857Y-117054380D01*
X183380095Y-117102000D01*
X183427714Y-117149619D01*
X183475333Y-117244857D01*
X183475333Y-117387714D01*
X183427714Y-117482952D01*
X183380095Y-117530571D01*
X183284857Y-117578190D01*
X182903904Y-117578190D01*
X183951523Y-118054380D02*
X184142000Y-118054380D01*
X184237238Y-118006761D01*
X184284857Y-117959142D01*
X184380095Y-117816285D01*
X184427714Y-117625809D01*
X184427714Y-117244857D01*
X184380095Y-117149619D01*
X184332476Y-117102000D01*
X184237238Y-117054380D01*
X184046761Y-117054380D01*
X183951523Y-117102000D01*
X183903904Y-117149619D01*
X183856285Y-117244857D01*
X183856285Y-117482952D01*
X183903904Y-117578190D01*
X183951523Y-117625809D01*
X184046761Y-117673428D01*
X184237238Y-117673428D01*
X184332476Y-117625809D01*
X184380095Y-117578190D01*
X184427714Y-117482952D01*
X183507142Y-82494380D02*
X183173809Y-82018190D01*
X182935714Y-82494380D02*
X182935714Y-81494380D01*
X183316666Y-81494380D01*
X183411904Y-81542000D01*
X183459523Y-81589619D01*
X183507142Y-81684857D01*
X183507142Y-81827714D01*
X183459523Y-81922952D01*
X183411904Y-81970571D01*
X183316666Y-82018190D01*
X182935714Y-82018190D01*
X184459523Y-82494380D02*
X183888095Y-82494380D01*
X184173809Y-82494380D02*
X184173809Y-81494380D01*
X184078571Y-81637238D01*
X183983333Y-81732476D01*
X183888095Y-81780095D01*
X185030952Y-81922952D02*
X184935714Y-81875333D01*
X184888095Y-81827714D01*
X184840476Y-81732476D01*
X184840476Y-81684857D01*
X184888095Y-81589619D01*
X184935714Y-81542000D01*
X185030952Y-81494380D01*
X185221428Y-81494380D01*
X185316666Y-81542000D01*
X185364285Y-81589619D01*
X185411904Y-81684857D01*
X185411904Y-81732476D01*
X185364285Y-81827714D01*
X185316666Y-81875333D01*
X185221428Y-81922952D01*
X185030952Y-81922952D01*
X184935714Y-81970571D01*
X184888095Y-82018190D01*
X184840476Y-82113428D01*
X184840476Y-82303904D01*
X184888095Y-82399142D01*
X184935714Y-82446761D01*
X185030952Y-82494380D01*
X185221428Y-82494380D01*
X185316666Y-82446761D01*
X185364285Y-82399142D01*
X185411904Y-82303904D01*
X185411904Y-82113428D01*
X185364285Y-82018190D01*
X185316666Y-81970571D01*
X185221428Y-81922952D01*
X183475333Y-116022380D02*
X183142000Y-115546190D01*
X182903904Y-116022380D02*
X182903904Y-115022380D01*
X183284857Y-115022380D01*
X183380095Y-115070000D01*
X183427714Y-115117619D01*
X183475333Y-115212857D01*
X183475333Y-115355714D01*
X183427714Y-115450952D01*
X183380095Y-115498571D01*
X183284857Y-115546190D01*
X182903904Y-115546190D01*
X184046761Y-115450952D02*
X183951523Y-115403333D01*
X183903904Y-115355714D01*
X183856285Y-115260476D01*
X183856285Y-115212857D01*
X183903904Y-115117619D01*
X183951523Y-115070000D01*
X184046761Y-115022380D01*
X184237238Y-115022380D01*
X184332476Y-115070000D01*
X184380095Y-115117619D01*
X184427714Y-115212857D01*
X184427714Y-115260476D01*
X184380095Y-115355714D01*
X184332476Y-115403333D01*
X184237238Y-115450952D01*
X184046761Y-115450952D01*
X183951523Y-115498571D01*
X183903904Y-115546190D01*
X183856285Y-115641428D01*
X183856285Y-115831904D01*
X183903904Y-115927142D01*
X183951523Y-115974761D01*
X184046761Y-116022380D01*
X184237238Y-116022380D01*
X184332476Y-115974761D01*
X184380095Y-115927142D01*
X184427714Y-115831904D01*
X184427714Y-115641428D01*
X184380095Y-115546190D01*
X184332476Y-115498571D01*
X184237238Y-115450952D01*
X183475333Y-114244380D02*
X183142000Y-113768190D01*
X182903904Y-114244380D02*
X182903904Y-113244380D01*
X183284857Y-113244380D01*
X183380095Y-113292000D01*
X183427714Y-113339619D01*
X183475333Y-113434857D01*
X183475333Y-113577714D01*
X183427714Y-113672952D01*
X183380095Y-113720571D01*
X183284857Y-113768190D01*
X182903904Y-113768190D01*
X184332476Y-113244380D02*
X184142000Y-113244380D01*
X184046761Y-113292000D01*
X183999142Y-113339619D01*
X183903904Y-113482476D01*
X183856285Y-113672952D01*
X183856285Y-114053904D01*
X183903904Y-114149142D01*
X183951523Y-114196761D01*
X184046761Y-114244380D01*
X184237238Y-114244380D01*
X184332476Y-114196761D01*
X184380095Y-114149142D01*
X184427714Y-114053904D01*
X184427714Y-113815809D01*
X184380095Y-113720571D01*
X184332476Y-113672952D01*
X184237238Y-113625333D01*
X184046761Y-113625333D01*
X183951523Y-113672952D01*
X183903904Y-113720571D01*
X183856285Y-113815809D01*
X183475333Y-129992380D02*
X183142000Y-129516190D01*
X182903904Y-129992380D02*
X182903904Y-128992380D01*
X183284857Y-128992380D01*
X183380095Y-129040000D01*
X183427714Y-129087619D01*
X183475333Y-129182857D01*
X183475333Y-129325714D01*
X183427714Y-129420952D01*
X183380095Y-129468571D01*
X183284857Y-129516190D01*
X182903904Y-129516190D01*
X184427714Y-129992380D02*
X183856285Y-129992380D01*
X184142000Y-129992380D02*
X184142000Y-128992380D01*
X184046761Y-129135238D01*
X183951523Y-129230476D01*
X183856285Y-129278095D01*
X183507142Y-100274380D02*
X183173809Y-99798190D01*
X182935714Y-100274380D02*
X182935714Y-99274380D01*
X183316666Y-99274380D01*
X183411904Y-99322000D01*
X183459523Y-99369619D01*
X183507142Y-99464857D01*
X183507142Y-99607714D01*
X183459523Y-99702952D01*
X183411904Y-99750571D01*
X183316666Y-99798190D01*
X182935714Y-99798190D01*
X184459523Y-100274380D02*
X183888095Y-100274380D01*
X184173809Y-100274380D02*
X184173809Y-99274380D01*
X184078571Y-99417238D01*
X183983333Y-99512476D01*
X183888095Y-99560095D01*
X185316666Y-99274380D02*
X185126190Y-99274380D01*
X185030952Y-99322000D01*
X184983333Y-99369619D01*
X184888095Y-99512476D01*
X184840476Y-99702952D01*
X184840476Y-100083904D01*
X184888095Y-100179142D01*
X184935714Y-100226761D01*
X185030952Y-100274380D01*
X185221428Y-100274380D01*
X185316666Y-100226761D01*
X185364285Y-100179142D01*
X185411904Y-100083904D01*
X185411904Y-99845809D01*
X185364285Y-99750571D01*
X185316666Y-99702952D01*
X185221428Y-99655333D01*
X185030952Y-99655333D01*
X184935714Y-99702952D01*
X184888095Y-99750571D01*
X184840476Y-99845809D01*
M02*
